<?xml version="1.0" encoding="UTF-8"?>
<svg version="1.1" viewBox="0 0 1627 2048" width="1280" height="1280" xmlns="http://www.w3.org/2000/svg">
<path transform="translate(0)" d="m0 0h1627v2048h-1627z" fill="#FEFE37"/>
<path transform="translate(0)" d="m0 0h1627v2048h-1627zm159 397v1310l1 1h1316v-1311z" fill="#0300AC"/>
<path transform="translate(265,766)" d="m0 0h333v882h-334v-881z" fill="#0200AB"/>
<path transform="translate(291,1058)" d="m0 0h2l9 13 11 13 14 14 16 11 17 10 11 7 1 12-1 5-13 3-9 5-2 2v7l-5 5-12 5-7 4-4 5 3 6 8 6 16 5 16 4 15 2 9 3v107l-4 25-6 35-7 28-7 19-7 13-8 9-8 6-1 1-1 38-3 7-9 11-11 13-9 11-10 12-3 3-1-1z" fill="#FEFE37"/>
<path transform="translate(568,1059)" d="m0 0h2l1 44v437h-3l-10-11-10-13-11-12-9-13-3-7-1-15 1-9v-9l-3-5v-2l-4-2-12-12-5-8-6-19-9-36-5-31-3-23-2-33v-67l1-8 9-3 28-6 16-5 9-5 1-2v-7l-5-5-8-4-12-5-1-5v-6l-13-7-9-1-1-1v-15l4-5 19-11 16-11 10-9 5-4 7-8 11-13z" fill="#FEFE37"/>
<path transform="translate(428,841)" d="m0 0 17 1 18 4 17 5 16 8 11 7 11 9 7 6 7 8 10 13 8 14 6 14 5 19 2 12v26l-4 20-7 21-10 18-13 17-9 9-11 9-8 6h-3l1-5 17-41 9-23 3-12v-7l-3-5-4-3-4-1-33-2-5-8-3-5-7-2 1-6 1-7-8-17 1-2h18l3 1v-50h-27l2-10v-9l-8-6-12-7-3-1h-7l-8 4-11 8-4 4 1 9 3 6-1 3-27-1 1 26v21l-1 2h22v3l-7 11-1 3v9l1 6-7 1-5 5-6 10h-26l-14 2-5 4-1 3v12l5 16 14 33 9 23 2 3v3l-4-2-14-11-10-9-12-14-9-15-8-17-5-16-3-19v-25l3-16 6-20 10-19 10-14 12-13 12-10 13-9 17-8 22-7 12-2z" fill="#FEFEFF"/>
<path transform="translate(1435,391)" d="m0 0h36l5 3 2 9 2 37v1261l-3 9-5 4-56 1h-1197l-58-2-3-4-2-6-1-2-1-729 1-566 3-10 4-3 10-1h1238zm-1276 6v1310l1 1h1316v-1311z" fill="#000067"/>
<path transform="translate(159,397)" d="m0 0h1317v1311h-1316l-1-1zm21 3-15 3-1 2v1297l2 3 14 1h1210l79-1 2-1 1-8 1-728v-174l-1-384-2-6-5-3-9-1z" fill="#FFFF6D"/>
<path transform="translate(878,1470)" d="m0 0h28l13 3 16 7 10 8 10 12 6 12 4 13 2 13v22l-3 17-5 14-8 12-7 8-14 9-15 6-9 2h-27l-15-4-16-8-10-9-8-10-7-14-4-20-1-16 3-24 4-13 6-10 8-10 8-8 16-8 9-3z" fill="#0200AB"/>
<path transform="translate(0)" d="m0 0h1627v10h-1627z" fill="#FEFEFF"/>
<path transform="translate(1015,1472)" d="m0 0h9l8 14 14 23 12 20 9 14 13 22 5 6h1l1-98 2-1 25 1v153h-26l-5-1-16-27-15-24-17-28-12-19-1 99h-30v-153z" fill="#0200AB"/>
<path transform="translate(265,766)" d="m0 0h333v882h-334v-881zm23 6-11 2-6 5-1 3-1 27v827l3 5 18 5 17 1h278l5-4 2-4 1-16v-691l-1-154-3-5-2-1z" fill="#00006D"/>
<path transform="translate(291,794)" d="m0 0h279v96l-5-5-7-10-11-13-7-7-11-9-13-9-18-10-19-7-22-5-7-1h-39l-17 3-20 6-16 7-16 9-14 11-10 9-13 14-7 10-5 7-2-1z" fill="#FEFE38"/>
<path transform="translate(240,712)" d="m0 0h382v31h-383v-30z" fill="#0300AC"/>
<path transform="translate(1306,1472)" d="m0 0h114v25h-83v36h75v25l-75 1v43h86l-1 24h-116z" fill="#00006E"/>
<path transform="translate(1196,1118)" d="m0 0h61l8 3 12 6 7 8 7 14 3 13 2 12-1 12-4 18-6 12-7 8-10 6-4 2-10 2-58 1z" fill="#00006E"/>
<path transform="translate(996,1283)" d="m0 0h57l14 4 9 7 7 7 6 12 3 9 2 18-1 14-2 10-5 12-4 6-5 6-11 7-8 3-6 2h-57v-98z" fill="#00006E"/>
<path transform="translate(1032,1118)" d="m0 0h67l12 5 8 7 4 8 1 4v12l-5 10-8 7h-2v3l6 2 9 6 5 10 2 8-1 6-3 9-4 8-9 7-13 4-69 1z" fill="#00006D"/>
<path transform="translate(723,1470)" d="m0 0h27l12 3 17 9 5 4 9 13 5 12v3l-26 7h-4l-4-10-5-6v-2l-5-2-9-4-5-1h-9l-12 3-9 7-6 7-4 9-2 11-1 18 2 18 4 13 7 9 6 5 13 5h13l10-4 6-4 7-9 5-14 2-1 27 9-1 7-8 16-7 9-8 7-14 7-17 4h-15l-15-3-13-5-12-9-7-7-8-13-5-12-4-18v-22l4-19 5-13 6-11 9-10 8-6 17-8z" fill="#00006C"/>
<path transform="translate(1203,1470)" d="m0 0h27l15 4 15 8 8 8 11 22v2l-15 4-9 2-6 2-4-10-4-6-10-7-10-3h-10l-13 4-8 6-7 10-5 17v30l4 15 6 11 8 7 9 4 4 1h13l11-4 9-7 6-11 2-10 10 2 18 6 2 3-5 13-5 9-7 9-13 9-11 5-14 3h-17l-16-4-12-5-12-9-7-8-8-13-4-11-3-16v-24l4-23 8-15 8-10 8-8 16-8z" fill="#00006D"/>
<path transform="translate(289,662)" d="m0 0h284v32h-284l-1-2z" fill="#0300AC"/>
<path transform="translate(265,764)" d="m0 0h332l4 4 1 4 1 77-1 220 1 66v338l-1 158-2 18-1 1-19 1-317-1-1-1-1-9-1-621v-130l1-109 1-13zm0 2-1 1v881h334v-882z" fill="#FEFE7D"/>
<path transform="translate(1114,1283)" d="m0 0h64l14 3 6 4 7 8 4 8 1 5v10l-4 11-9 9-6 4-9 3v3l5 2 8 8 10 15 10 17 3 5v2h-26l-26-39-8-7v-2h-19l-1 48h-24z" fill="#00006E"/>
<path transform="translate(158,1708)" d="m0 0h1319l-2 4-3 2-56 1h-1197l-58-2z" fill="#000067"/>
<path transform="translate(888,1495)" d="m0 0h10l12 3 10 6 7 7 6 12 3 13v23l-3 14-7 14-8 8-10 5-6 2h-18l-11-4-11-8-7-10-4-11-2-11v-20l3-13 7-14 9-9 9-5z" fill="#FEFE37"/>
<path transform="translate(706,1283)" d="m0 0h26l6 13 15 39 6 15 11 29 7 18v3h-24l-5-11-5-15-48-1-2 9-5 13-2 5h-24l-1-2 18-47 16-42 10-25z" fill="#00006E"/>
<path transform="translate(884,1283)" d="m0 0h87v19l-63 1v26h58v19l-1 1h-57v31h65v20h-90v-110z" fill="#00006F"/>
<path transform="translate(0,2044)" d="m0 0h1627v4h-1627z" fill="#FEFEFF"/>
<path transform="translate(333,612)" d="m0 0h197l-1 33h-196l-1-2z" fill="#0300AC"/>
<path transform="translate(1232,1283)" d="m0 0h88l-1 20-62-1v27h58l1 1v16l-1 1h-56l-2-1v35l7-1h49l10 1v19h-90l-1-1z" fill="#00006F"/>
<path transform="translate(1315,1118)" d="m0 0h88v20l-64-1v27h59l-1 19h-57v32h65v19l-22 1h-37l-31-1z" fill="#00006E"/>
<path transform="translate(913,1118)" d="m0 0h24l1 82 4 8 4 5 10 4h8l9-4 5-4 3-8 1-7 1-76h24v69l-2 23-4 10-7 8-10 5-16 3-1 1h-14l-16-4-12-6-6-7-4-10-3-12v-79z" fill="#00006F"/>
<path transform="translate(1339,1283)" d="m0 0h85l1 2-1 18-10 13-12 14-11 14-9 10-8 10-11 13-1 2 64 1 1 1v19h-95l1-23 13-16 14-17 12-14 11-13 9-11 2-4-3 1h-52z" fill="#00006F"/>
<path transform="translate(730,1116)" d="m0 0h25l10 4 11 6 7 8 5 11 1 5-7 3-6 2h-10l-5-10-7-5-10-3-10 1-12 6-6 9-4 17v10l3 15 4 10 8 7 5 2 10 1 10-2 8-7 6-10 2-5 20 6 1 1-1 9-6 12-9 9-12 6-11 2-5 2-12-1-11-3-14-7-6-5-7-10-5-11-2-9-1-1v-27l4-15 5-10 7-9 8-6 12-6z" fill="#00006D"/>
<path transform="translate(433,607)" d="m0 0 8 1 5 1 84 1 1 1v36l-5 2-12 1-3 1v3l11 3 11 2 40 1 2 1 2 10v15l-2 9-11 1-9 2h-261l-3-1v-2h-4l-1-4v-29l2-2 17-1 4-1 26-1 16-2 3-2-11-1-8-3v-2l-5-1v-34l5-2 73-1zm-100 5-1 32 1 1h196l1-33zm-44 50-1 31 1 1h284v-32z" fill="#FEFE6F"/>
<path transform="translate(497,766)" d="m0 0h101v882h-334v-46h1l1 10 1 23 1 9 1 2h316l5-5 1-2 1-16v-655l1-2v-35l-1-160-5-2-8-1-82-1z" fill="#000045"/>
<path transform="translate(158,400)" d="m0 0h1l1 1308h-2l-3-7-1-729 1-566 2-5z" fill="#00006F"/>
<path transform="translate(1476,396)" d="m0 0h1l1 7 2 37v1261l-2 7h-2z" fill="#00006D"/>
<path transform="translate(291,1058)" d="m0 0h2l9 13 11 13 14 14 16 11 17 10 11 7 1 12-1 5-13 3-9 5-2 2v7l-5 5-12 5-4 1 2-4 12-6 2-5 6-8 3-1 1-3 4-3h2l4-10-4-6-9-7-7-4-5-4-5-5-8-6-10-9-10-8-3-1-4 1-1 25v410l4 1 3 1 9-5 5-4 3-5h2l1-5 6-8 2-5 1-6 1-27 2-6 7-10 6-4 9-16 9-26 6-25 4-26 3-14 2-20v-74l-1-19-2-4-13-6-21-3-9-4v-2l-6-2-6-4 1-2 8 5 18 5 12 3 15 2 9 3v107l-4 25-6 35-7 28-7 19-7 13-8 9-8 6-1 1-1 38-3 7-9 11-11 13-9 11-10 12-3 3-1-1z" fill="#FEFE6F"/>
<path transform="translate(1324,1480)" d="m0 0h15l40 1 11 2 7 4v4h-57l-7 8-1 18 1 16 3 1 1 6 14 2 10 2 23 1 5 1-1 3-3 1-46 1-2 5-3 5-2 12v12l1 17 7 4 11 2 41 5 5 2v2l-13 3h-63l-7-4-3-4-1-4v-110l2-9 3-5 5-3z" fill="#0300AC"/>
<path transform="translate(731,1478)" d="m0 0h19l13 4 10 5 5 5 3 4 1 7-4 4-5 2-4-1-5-4-6-4-3-5v-2l-11-3h-19l-8 3-11 6-8 5-3 17-3 19v19l1 13 4 13 2 4 11 9 6 5 10 4 13 1 10-3 6-3 9-7 9-12 4-2 7 1 5 6-2 6-7 11-8 7-7 4-18 5-10 2-13-1-10-3-10-5-16-12-8-10-6-13-4-13-1-10v-12l4-16 12-25 4-5 4-6 4 1 3 1 9-6 11-6 5-3z" fill="#0300AC"/>
<path transform="translate(240,712)" d="m0 0h382v31h-383v-30zm48 6-24 1-11 3-4 4v7l5 3 6 1 35 1h290l19-1 9-3 1-2v-7l-3-5-8-2z" fill="#000070"/>
<path transform="translate(568,1059)" d="m0 0h2l1 44v437h-3l-10-11-10-13-11-12-9-13-3-7-1-15 1-9v-9l-3-5v-2l-4-2-12-12-5-8-6-19-9-36-5-31-3-23-2-33v-67l1-8 9-3 28-6 16-5 9-5 1-2v-7l-5-5-8-4-12-5-1-5 1-5 4 2 3 3v2l5 2 6 5 8 7 2 3-1 11-2 3h-2l-2 4-6 3-35 8-7 2h-6l-1 13v59l2 35 6 42 5 21 4 16 9 27 6 9 12 12 3 4 2 16 1 18 2 10 3 5 3 3 4 6v2h2l8 10 9 7v-2l2-1 2-13v-408l-1-17-8 3-7 4-1 2h-2v2l-5 4-5 7-16 10-12 7-11 7-2 11 6 1 11 9-2 1-10-5-9-1-1-1v-15l4-5 19-11 16-11 10-9 5-4 7-8 11-13z" fill="#FEFE74"/>
<path transform="translate(1215,1477)" d="m0 0h12l18 5 9 6 6 9v5l-3 3-7 1-9-7v-2l-5-2-9-3-5-2-11-1-5-1-7 1-4 2v2l-4 4h-2l-2 4-7 9-5 12-2 7-1 10v29l3 12 5 10 8 8 11 7 9 3 7 1h10l9-4 11-11h2l2-4 6-5 4-1 4 2 2 7-2 6-7 8-8 7-13 4-11 3-9 1h-9l-8-2-18-8-11-9-6-8-7-12-3-7-1-6-1-27 3-20 5-13 7-11 6-7h2v-2l9-4 4-1h11l7-4z" fill="#0300AC"/>
<path transform="translate(265,764)" d="m0 0h306v1l-207 1-99 1v869l-1 12 2 1h-4l-1-9-1-621v-130l1-109 1-13z" fill="#FEFE8B"/>
<path transform="translate(811,1118)" d="m0 0h24v97h58v20h-82l-1-3z" fill="#00006F"/>
<path transform="translate(833,1283)" d="m0 0h24v84l-4 16-6 8-10 7-5 2-6 1h-16l-10-3-6-4-7-8-3-7-1-5v-11l2-2h18l5 15 4 4 9 1 7-2 3-4z" fill="#00006D"/>
<path transform="translate(1242,1280)" d="m0 0h73l6 2 2 2v12l-1 1-1 7-45 1-12 4-3 7 3 9 4 1 42 1 7 1v19l-1 1-13 1-4 1-22 1-11 2-4 2-1 2v16l2 3 5 1 45 1 11 1 4 1 11-17 11-13 12-14 12-16 5-8v-3l-2-1-15-1-6-2-18-1-1-1-1-21 1-1 7-1h70l11 2 1 1 2 12-1 9-4 8-9 11-12 14-7 8-1 2h-2l-2 5-5 6h-2l-1 5-4 6v4l6 2 2 1 9 1 26 1 7 2 1 22-15 2h-65l-10-2-15-1-1 1-12 1h-67l-13-2-2-6v-79l1-33 7-2zm-10 3v116l1 1h90v-19l-10-1h-49l-7 1v-35l2 1h56l1-2v-15l-1-1h-58v-27l62 1 1-20zm107 0v20h52l3-1-3 5-12 14-9 11-13 15-11 14-10 12-3 4-1 23h95v-19l-1-1-64-1 8-10 11-13 9-11 11-13 9-11 12-15 2-3 1-19-1-1z" fill="#FEFE9A"/>
<path transform="translate(1019,1302)" d="m0 0h23l13 2 9 8 4 8 2 12v19l-3 15-5 8-6 4-4 2-13 1h-20z" fill="#FEFE37"/>
<path transform="translate(1221,1137)" d="m0 0 30 1 12 6 6 12 2 10v22l-3 12-5 8-5 4-9 3h-29v-77z" fill="#FEFE37"/>
<path transform="translate(1092,1467)" d="m0 0 19 3 6 3 1 9v142l-2 4-4 1h-19l-11-3-9-10-7-11-8-16-8-12-9-14-4-7-2-1v-2l-7 3-2 10v12l1 21-2 21-1 7-5 1h-29l-2-21v-121l1-13 2-2 9-2h13l12 2 8 7 6 11 6 10 7 11 3 5 8 15 4 10 8 6h5l2-7 1-8v-49l2-10zm-77 5-23 1v153h30l1-99 12 19 17 28 6 10 9 14 16 27 5 1h26v-153l-26-1-1 1-1 98-5-5-22-36-8-13-17-28-9-15-1-2z" fill="#FEFE8B"/>
<path transform="translate(1336,1474)" d="m0 0h56l16 1 7 2 1 2v13l-3 4-23 1h-53v37h21l40 1 8 2 2 2 1 9-2 6-3 3h-68l3-6 2-1 44-1 3-1 1-2-28-1-24-4-2-7-2-1-1-3-1-19 1-12 7-8 1-1h39l18 1-1-4-10-4-7-1-40-1h-15l-7 3-3 3-2 5-1 6-1 110h-1l-1-71-1-17v-31l2-12z" fill="#00006D"/>
<path transform="translate(565,1062)" d="m0 0v3l-11 14-7 7-5 6-8 7-17 12-23 14-2 3v15l9 1 13 7 1 1v10l12 5 8 4 5 4 1 2v7l-5 5-11 5-28 7-20 4v75l2 33 7 49 6 26 6 21 5 15 4 6 18 18 1 3v9l-1 12 1 12 6 12 9 11 9 10 11 14 6 7v1h-5l-9-7-4-8-9-10-12-14-6-13-2-8-1-22-2-5v-3h-2l-2-6h-2l-4-5-8-6-6-16-4-13-7-25-3-23-5-32-2-28-1-4v-72l2-12 2-4 6-4 13-3 10-2 7-3 7-2 4-1 2-4h2l-1-9h-2v-2l-4-2-6-7-5-5-3-5-15-10v-2h-2l-1-10 3-6 4-5 3-3 6-1v-2l7-6 10-7 12-8 7-8 8-7 9-10 4-5z" fill="#003"/>
<path transform="translate(878,1470)" d="m0 0h28l13 3 16 7 10 8 10 12 6 12 4 13 2 13v22l-3 17-5 14-8 12-7 8-14 9-15 6-9 2h-27l-15-4-16-8-10-9-8-10-7-14-4-20-1-16 3-24 4-13 6-10 8-10 8-8 16-8 9-3zm6 7-15 3-15 4-7 5-12 16-5 11-4 13-2 11v25l4 16 8 16 10 10 11 7 9 4 8 3 12 2h18l17-5 14-7 9-9 6-9v-2h2l6-14 2-8v-32l-3-15-6-16-6-8-12-12-7-1-8-4-3-2-9-1-5-1z" fill="#00006B"/>
<path transform="translate(1325,1119)" d="m0 0h64l9 3 2 5h2l-1 3-3 7-61 1-2 2-1 11 1 11 3 5 1 1 1 11-5 11-1 16 2 10 2 8-3 3h-7l-5-5-1-3h-2l-3-63v-30l1-4z" fill="#000070"/>
<path transform="translate(371,1126)" d="m0 0 2 2 2 10-3 6-2 3h-2v2l-12 6-5 5-3 4-3 5-8 7-2 6v4l13 4 27 6 8 4 1 3 4 2 3 6v105l-2 16-5 21-4 25-7 29-10 23-7 11-6 5-4 3h-3l-2 43-4 6-6 7-5 5-7 9-9 9-7 8-9 6 2-4 11-14 9-10 11-14 6-7 3-7 1-38 8-7 7-6 8-14 6-15 6-21 5-24 4-24 4-25 1-107-14-3-13-2-24-6-10-5-6-7-1-3 6-7 10-5 8-3 4-4v-7l6-5 8-4 11-1z" fill="#000069"/>
<path transform="translate(1474,397)" d="m0 0h2v1311h-1294v-1l1292-1z" fill="#FEFEFF"/>
<path transform="translate(570,1060)" d="m0 0 2 4 2 7 2 21v432l-3 12-2 1-1-6z" fill="#000069"/>
<path transform="translate(333,612)" d="m0 0h197l-1 33h-196l-1-2zm101 5-71 1-12 1-9 4-3 6 1 6 4 3 8 2 143 1 24-1 5-5-1-10-7-6-5-1-34-1z" fill="#000070"/>
<path transform="translate(1308,1470)" d="m0 0h106l7 1 1 4v16l-1 7-13 2-11 1h-41l-11 2-3 1-1 18 2 7 9 1 61 1 3 8v13l-2 8-15 2-49 1-8 2v33l76 1 6 2v25l-5 2-10 1h-35l-14 1-31-1h-9l-17-2-1-38v-108l1-10zm-2 2v154h116l1-24h-86v-43l75-1v-25h-75v-36h83v-25z" fill="#FEFE8F"/>
<path transform="translate(1015,1472)" d="m0 0h9l8 14 14 23 12 20 9 14 13 22 5 7-7-2-4-3v-2h-2l-7-9-3-5-3-7-5-5-3-6-4-6-4-5-3-7-12-20-4-7-3-3-8-2-9 1-5 4-1 11v101l1 17h17v-86l4-5h2v100h-30v-153z" fill="#000032"/>
<path transform="translate(159,397)" d="m0 0 3 1-1 3v1305l6 1v1h-7l-1-1z" fill="#FEFEFF"/>
<path transform="translate(289,662)" d="m0 0h284v32h-284l-1-2zm98 3-71 1-12 1-8 3-2 8v7l2 2 13 2 4 1 15 1h224l9-2 5-4v-12l-2-4-7-3-24-1z" fill="#00006D"/>
<path transform="translate(1088,1472)" d="m0 0 26 1v153h-26l-5-1-16-27-15-24-17-28-10-16v-2l5 2 8 9 9 16 12 19 7 11 6 9 12 22v2h18l5-5 1-2v-102l-1-14-3-7-4-1-5 6-1 4-1 16-1 51-2 6h-2v2l-2-1 1-98z" fill="#00006F"/>
<path transform="translate(701,1513)" d="m0 0h2l-3 9-2 11-1 18 2 18 4 13 7 9 6 5 13 5h13l10-4 6-4 7-9 5-14 2-1 27 9-1 7-8 16-7 9-8 7-14 7-17 4h-15l-15-3-13-5-8-6-7-8-3-4-6-12v-2h2l7 11 8 7 15 10 7 3 16 3h8l25-7 11-7 6-7 6-11-2-5-4-3-7 1-4 4-7 9-10 8-7 3-8 2-13-1-10-4-11-9-7-6-4-9-2-8-1-13v-19h2v-7l5-16 1-2h2z" fill="#00006B"/>
<path transform="translate(290,1070)" d="m0 0h1l1 248-1 210h-1l-1-9-2-2-1-222v-143l1-64 2-3z" fill="#00002F"/>
<path transform="translate(883,1489)" d="m0 0h19l12 4 8 5 7 8 4 5 5 13 4 22-1 20-4 13-8 13-7 8-7 4-10 3h-25l-10-4-2-1v-2l-4-2-5-5v-2h-2v-2l-4-2-7-14-2-9-1-12v-14l2-10 4-10 2-6 1-7 7-2 7-8 10-4zm5 6-11 2-10 6-8 8-7 14-3 13v20l3 14 4 9 6 9 11 8 11 4h18l13-5 10-9 6-10 4-13 1-6v-23l-3-13-6-12-8-8-12-6-9-2z" fill="#00006B"/>
<path transform="translate(291,794)" d="m0 0h279v96l-5-5-7-10-11-13-7-7-11-9-11-8v-1h5l9 7 6 5v2l4 2 5 4 6 7 6 3h5l1-3 1-15v-17l-1-31-1-2-4-1-35-2h-62l-4 1h-64l-2-1h-16l-5 1h-54l-15 2h-6l-1 45v19l8 1 9-3 2 1-10 11-7 10-5 7-2-1z" fill="#FFFF6D"/>
<path transform="translate(922,1116)" d="m0 0h9l7 1 3 7 1 72 4 9 5 5 7 2 10-1 6-3 3-10 1-68 2-13 2-1h20l6 2 2 41-1 17v27l-2 10-3 10-7 8-9 6-10 2h-32l-5-3-9-3-10-7-6-7-4-11-2-11-1-3v-58l1-17 1-2zm-9 2-1 1v79l5 18 6 9 9 6 11 4 10 2h14l4-2 13-2 10-5 7-8 4-10 2-23v-69h-24l-1 76-2 11-4 6-7 4-5 2h-8l-10-4-6-8-2-5-1-82z" fill="#FEFE84"/>
<path transform="translate(411,813)" d="m0 0h39l25 5 18 6 16 8 15 9 13 11 10 9 10 11 10 14-1 2-8-7-9-8-3-3-4-5-8-7-5-5-5-4-8-4-3-2v-2l-5-2-16-8-13-4-17-5-17-3h-26l-19 3-21 5-15 6-18 10-11 7-13 12-7 6-1 2h-2l-2 4-8 12-4 2h-3l2-5 8-11 15-16 10-9 14-10 16-9 14-6 20-6z" fill="#00006B"/>
<path transform="translate(708,1279)" d="m0 0h16l8 1 8 11 6 13 4 11 9 22 5 14 7 18 4 6v2h4l-1-5v-7l5-5 6-1 15 1-1 2h-18l-1 1v11l3 10 4 6 4 5-7-2-6-5-3 1-1 12-19 1-7-1-2-5h-2l-3-5-3-8-5-4-5-1h-24l-8 1v2l-5 4-3 6h-2l-2 9-1 1h-27l1-10 5-14 7-18 10-27 5-13 5-17 8-16 4-5zm-2 4-5 10-16 43-6 15-18 47 1 2h24l9-24v-3l48 1 7 20 3 6h24l-1-6-6-15-16-42-10-25-8-21-4-8z" fill="#FEFE7C"/>
<path transform="translate(249,710)" d="m0 0h367l7 1 2 5 1 6-2 22-1 1-26 1-25-1h-233l-62 1h-23l-2-1-14-1-1-1-1-19 1-12 2-1zm-9 2-1 1v30h383v-31z" fill="#FEFE9D"/>
<path transform="translate(291,1058)" d="m0 0h2l6 10h-6v30l1 29 1 5v343l-1 12-1 50 4-1-2 4-3 3-1-1z" fill="#FEFEFF"/>
<path transform="translate(1121,1280)" d="m0 0h53l13 2 2 1v2h5l7 6 5 3 4 5 1 8v20l-5 10h-2l-2 4-2 3h-2l-2 5-2 2 1 4 5 11 5 5 6 8 8 18v4l-9 2h-13l-7-3-5-5-11-18-10-15-6-4h-12l-4 8-2 33-1 2-26 1-2-6-1-9-1-32 1-59 1-12 1-2zm-7 3v117h24l1-48h19l1 3 8 7 11 17 14 21h26l-2-6-8-13-11-17-9-10-4-3h-2v-3l11-4 12-11 4-8 1-4v-10l-3-10-6-8-7-6-10-3-6-1z" fill="#FEFE7A"/>
<path transform="translate(1242,1280)" d="m0 0h73l6 2 2 2v12l-1 1-1 7-45 1-12 4-3 7 3 9 4 1 42 1 7 1v19l-1 1-13 1-4 1-22 1-11 2-4 2-1 2v16l2 3 5 1 45 1v1h-56v-33h58v-16l-58-1v-27h59l3 1v-13l1-7h-88l1 116 20 1 68 1v1l-10 1h-67l-13-2-2-6v-79l1-33 7-2z" fill="#FEFE73"/>
<path transform="translate(1055,1184)" d="m0 0h36l9 4 5 6 1 2v7l-3 6-5 4-4 2h-39z" fill="#FEFE37"/>
<path transform="translate(884,1283)" d="m0 0h87v19h-7l2-1-1-11-3-1h-62l-13 1-1 4v91l1 9 3 4h72l3-3h2v-9l-5-2-14-1h-20l-20-1-1-1v-33h52l1-12v-3l-52-2v-2h58v19l-1 1h-57v31h65v20h-90v-110z" fill="#000045"/>
<path transform="translate(888,1495)" d="m0 0h10l12 3 10 6 7 7 6 12 3 13v23l-3 14-7 14-8 8-10 5-6 2h-18l-11-4-11-8-7-10-4-11-2-11v-20l3-13 7-14 9-9 9-5zm2 5-13 3-6 4-5 4-7 11-4 10-1 5v17l2 12 4 10h2v5l8 9 11 7 9 2h8l9-2 5-3 9-9 6-10 2-5 2-14v-21l-4-15-4-8-4-5-11-5-8-2z" fill="#FEFE7B"/>
<path transform="translate(916,1472)" d="m0 0 8 1 11 5 12 8v2l4 2 6 7 8 13 2 5 4 19v10l-1 4v20l-4 17-8 15-8 10-3 1-2 5-5 4-10 6-13 4-13 2h-16l-26-4-10-5-5-6-14-10-10-16-4-8-3-19-1-21 2-16 3-12 5-12 6-9 5-4 3 1-9 12-6 12-3 14-2 18 1 16 4 20 7 14 9 11 8 7 16 8 15 4h27l15-4 16-8 9-7 9-12 6-12 4-17 1-7v-22l-3-17-6-16-7-10-8-9-9-6-17-7z" fill="#FEFE7D"/>
<path transform="translate(1335,1496)" d="m0 0h1l1 37 21 1 40 1 8 2 2 2 1 9-2 6-3 3h-68l3-6 2-1 44-1 3-1 1-2-28-1-24-4-2-7-2-1-1-3-1-19 1-12z" fill="#000070"/>
<path transform="translate(408,564)" d="m0 0h39l8 1v29h-48z" fill="#000070"/>
<path transform="translate(1247,1295)" d="m0 0 6 1v7l-1 9 2 14 3 6v12l-4 5-1 3-2 31 1 5-1 2h-6l-7-6v-52l1-27 2-6 3-3z" fill="#0300AC"/>
<path transform="translate(1332,1128)" d="m0 0h7l1 3-4 7-1 1-1 12 1 11 3 5 1 1 1 11-5 11-1 16 2 10 2 8-3 3h-7l-5-5-2-3v-72l4-13 5-5z" fill="#0300AC"/>
<path transform="translate(434,440)" d="m0 0 4 1v100h-14v-100z" fill="#000047"/>
<path transform="translate(1042,1115)" d="m0 0h26l30 1 9 2 9 5 8 8 4 7v12l-3 11-3 6v8l2 6 5 2 3 5 1 8v15l-9 17-9 6-8 3-7 1h-45l-24-2-2-5-1-53v-17l1-43 5-2zm-10 3v117l69-1 13-4 9-7 6-12 2-7-1-9-4-9-4-6-11-6h-2v-3l5-2 7-8 3-7v-12l-4-10-6-7-7-4-8-3z" fill="#FEFE88"/>
<path transform="translate(1146,1302)" d="m0 0h27l7 2 5 6 1 2v10l-4 7-7 3h-37v-29z" fill="#FEFE37"/>
<path transform="translate(1e3 1279)" d="m0 0h21l25 1 10 2 9 4v2l5 1 2 1v2l4 2 6 5 6 11 2 14 2 4v27l-2 5-2 9-11 21-4 5-16 7-18 2h-28l-21-3-2-5-1-15v-80l1-17 2-3zm-8 4-1 19v98h57l12-4 10-6 6-5 7-10 5-14 2-16-1-15-2-11-6-15-9-10-9-7-14-4z" fill="#FEFE8C"/>
<path transform="translate(896,1296)" d="m0 0h7l1 5-2 4 1 27 4-1 2 5 3 3v3l-4 1-1 5-3 3-1 10v21l1 10-5 1-4-4-6-9v-68l3-12z" fill="#0300AC"/>
<path transform="translate(323,1187)" d="m0 0 12 6 27 7 15 2 9 3v107l-4 25-6 35-7 28-7 19-7 13-8 9-8 6-1 1-1 38h-1l-1-38 7-10 6-4 9-16 9-26 6-25 4-26 3-14 2-20v-74l-1-19-2-4-13-6-21-3-9-4v-2l-6-2-6-4z" fill="#FEFE82"/>
<path transform="translate(1219,1115)" d="m0 0h26l16 1 14 8 1 2-18-6-1-1-61-1v117l3-1 55-1 12-3 9-5 6-5 7-11 4-12 3-18-1-11-3-16-5-12-7-11 4 1 9 14 2 5 2 11 2 5-1 26-4 18-6 10-6 8h-2l-1 3-7 5-20 3h-36l-21-2-2-6-1-11v-70l1-21 2-11 2-1z" fill="#FEFE84"/>
<path transform="translate(354,693)" d="m0 0h194l24 1v1l-17 3h-261l-3-1v-2l-4-1z" fill="#FEFE83"/>
<path transform="translate(901,1279)" d="m0 0 67 1 4 2v21l-1 1-41 1-16 4-1 2-1 15 49 1 5 1v1h-58v-26l9-1h54v-19h-87l-1 117h90v-19h1v21l-15 2h-59l-18-3-1-2-1-10v-92l1-13 1-2 9-2z" fill="#FEFEB3"/>
<path transform="translate(1124,1295)" d="m0 0 10 1 1 5-2 5v25l1 3 12 5 1 4-5 5h-2v2l-6 4-3 18-3 7-1 1-8-1v-81z" fill="#0300AC"/>
<path transform="translate(1322,1116)" d="m0 0h63l18 1v1h-88l1 18v91l-1 7h90v-19h-65l-1-15v-17l3-1 55 1v-13l1-6h1v19l-1 1-42 1-10 4-2 3v12l-1 1v5l6 1 44 1 13 1 1 1v22l-9 1h-31l-53-1-2-7-1-20v-47l1-43 1-2z" fill="#FEFE96"/>
<path transform="translate(1337,1137)" d="m0 0h2v27h59l-1 19h-58l-1-15-3-3-1-3-1-13 1-9z" fill="#00006E"/>
<path transform="translate(1047,1128)" d="m0 0h6l3 3-3 6h-3v27l9 9-2 5-6 7-2 14v17l4 7v3h-8l-5-3-3-8v-42l1-30 3-12z" fill="#0300AC"/>
<path transform="translate(1207,1129)" d="m0 0h12l1 5h-4l-1 5-1 32v54l-1 1-7-1-4-4-1-3v-73l1-12z" fill="#0300AC"/>
<path transform="translate(996,1283)" d="m0 0h57l14 4 9 7 7 7 6 12 3 9 2 18-1 14-2 10-5 12-4 6-5 6-11 7-2-1 8-6 5-5 4-5 3-9h2l2-5 3-12v-6l-2-8-4-22-5-12-7-8-12-6-8-1h-44l-8 1-1 4v96l1 9 53-1-2 2h-57v-98z" fill="#000047"/>
<path transform="translate(565,1062)" d="m0 0v3l-11 14-7 7-5 6-8 7-17 12-23 14-2 3v15l9 1 13 7 1 1v10l12 5 8 4 5 4 1 2v7l-5 5-11 5-28 7-22 4v-2l6-4 13-3 10-2 7-3 7-2 4-1 2-4h2l-1-9h-2v-2l-4-2-6-7-5-5-3-5-15-10v-2h-2l-1-10 3-6 4-5 3-3 6-1v-2l7-6 10-7 12-8 7-8 8-7 9-10 4-5z" fill="#00006D"/>
<path transform="translate(1056,1137)" d="m0 0h33l7 3 6 9-1 6-4 6h-4v3l-6 1h-32v-27z" fill="#FEFE37"/>
<path transform="translate(822,1130)" d="m0 0 7 1 1 8 1 86-2 1h-6l-4-3-2-10v-68l3-12z" fill="#0300AC"/>
<path transform="translate(553,787)" d="m0 0 5 2 3 3 9 1v1h-279v-1l15-2 1-1 187-1 53-1z" fill="#000065"/>
<path transform="translate(597,1403)" d="m0 0h1v245h-334v-46h1l1 10 1 23 1 9 1 2h316l5-5 1-2 1-16v-166h1l1 90 2 37z" fill="#00004A"/>
<path transform="translate(1211,1495)" d="m0 0h10l10 3 11 8 5 7 2 9-2 1-5-8-4-4v-2h-2l-4-4-8-4h-12l-13 4-7 6-6 10-3 14-1 15 2 17 5 13 7 9 6 6 6 2h16l9-4 4-5 6-10 2-5 4-5 4 1h-3l-1 10-6 11-8 7-9 4-4 1h-13l-11-4-8-6-5-6-5-11-3-12v-30l5-17 7-10 7-6 11-4z" fill="#FEFE80"/>
<path transform="translate(730,1467)" d="m0 0h15l6 1v2l8 1-4 1-5-1h-27l-11 3-17 8-11 10-7 11-5 11-4 14-2 11v22l5 21 8 16 7 9 9 8 8 5 14 5 12 2h15l17-4 14-7 10-9 8-13 6-15 1 4-2 12-8 14-4 2-2 5-3 3-15 7-9 3-1 1-16 2-15-2-9-3-14-5-10-3-4-7-5-2-3-5v-2l-4-2-6-9-4-10-4-21v-25l4-18 5-14 6-10 9-10 8-4 5-4 9-5 12-3z" fill="#FEFE80"/>
<path transform="translate(731,1495)" d="m0 0h9l13 4 6 4 7 10 2 4v5l-2-1v-4l-3-1-6-9-8-4-12-2-17 3-10 9-5 10-2 7-1 11v19l3 12 3 8 6 9 7 6 5 2h18l7-3 7-8 5-9 7-10 13 3 14 6-3 1-22-7-2 3-5 12-6 8-5 4-8 4-4 1h-13l-13-5-8-7-7-10-3-11-2-18 1-18 3-14 6-10 7-7 6-4z" fill="#FEFE80"/>
<path transform="translate(1088,1472)" d="m0 0 26 1v153h-26l-5-1-16-27-7-11 1-2 11 13 6 12 3 7 2 1v2l4 2 5 2h12l3-1 2-4v-135l-1-6-2-1h-10l-5 3-1 5-1 16 1 36v16l-1 6h-2v-86z" fill="#00002C"/>
<path transform="translate(1308,1470)" d="m0 0h106l7 1 1 4h-2v-3h-114v154h116l-3 2-10 1h-35l-14 1-31-1h-9l-17-2-1-38v-108l1-10z" fill="#FEFEA2"/>
<path transform="translate(1114,1283)" d="m0 0h64l14 3 6 4 7 8 4 8 1 5v10l-4 11-9 9-2-1 3-3 5-10 1-5v-11l-5-13-5-5-10-4-10-1-43-1-10 1-4 1 1 33v71l3 5h10l3-8 2-1 1-11h1v22h-24z" fill="#000047"/>
<path transform="translate(1388,1280)" d="m0 0h26l11 2 1 1 2 12-1 9-4 8-9 11-12 14-7 8-1 2h-2l-2 5-5 6h-2l-1 5-4 6v4l6 2 2 1 9 1 26 1 7 2 1 22-15 2h-65l-10-2v-1h88l-1-20-65-1 3-5 11-13 9-11 11-13 9-11 11-13 8-11 1-19-27-1-9-1z" fill="#FEFE7F"/>
<path transform="translate(596,1204)" d="m0 0h2v199l-1 203h-1l-3-59v-103l2-23v-108l1-17z" fill="#000031"/>
<path transform="translate(1e3 1477)" d="m0 0h15l6 3 9 14 15 25 14 22 9 15 7 9 3 1 4 6-7-2-4-3v-2h-2l-7-9-3-5-3-7-5-5-3-6-4-6-4-5-3-7-12-20-4-7-3-3-8-2-9 1-5 4-1 11v101l1 17h17v-29h1v35l-1 2h-17l-2-3-2-15v-125l1-3z" fill="#00006F"/>
<path transform="translate(878,1470)" d="m0 0h28l13 3 16 7 10 8 10 12 6 12 4 13 2 13v22l-3 17-5 14-8 12-7 8-14 9-4 2-3-1 9-5 8-7 9-8 5-10 4-13 3-15 1-8v-17l-2-14-4-12-7-13-11-12-8-6-5-1v-2l-5-1-17-3-8-1-21 2-10 3-6 4h-2v2l-9 3-10 8v-3l10-10 16-8 9-3z" fill="#000045"/>
<path transform="translate(292,1067)" d="m0 0 8 1 7 9 9 10 11 11 16 11 17 10 11 7 1 12-1 5-13 3-9 5-2 2v7l-5 5-12 5-4 1 2-4 12-6 2-5 6-8 3-1 1-3 4-3h2l4-10-4-6-9-7-7-4-5-4-5-5-8-6-10-9-10-8-3-1-4 1-1 25v26l-2-1-1-5-1-29z" fill="#FEFE7B"/>
<path transform="translate(371,1126)" d="m0 0 2 2 2 10-3 6-2 3h-2v2l-12 6-5 5-3 4-3 5-8 7-2 6v4l13 4 27 6 8 4 1 3h2v2l-14-3-13-2-24-6-10-5-6-7-1-3 6-7 10-5 8-3 4-4v-7l6-5 8-4 11-1z" fill="#00006D"/>
<path transform="translate(515,1153)" d="m0 0 4 2 3 3v2l5 2 6 5 8 7 2 3-1 11-2 3h-2l-2 4-6 3-35 8-7 2h-6l-2 20-1 6v37l1 36 5 37 2 8 3 21 2 12-2-1-5-22-7-49-2-33v-67l1-8 9-3 28-6 16-5 9-5 1-2v-7l-5-5-8-4-12-5-1-5z" fill="#FEFE7A"/>
<path transform="translate(1306,1472)" d="m0 0h114v25h-30v-1l23-1 2-3v-13l-1-2-6-1-16-1h-56l-21 2h-6l-1 12v31l1 17 1 85 2 2 41 1v1h-47z" fill="#000047"/>
<path transform="translate(1022,1526)" d="m0 0 4 4 13 21 15 25 7 11 8 13 14 23v2h5v2l-6-1-9-10-7-11-8-16-8-12-9-14-4-7-2-1v-2l-7 3-2 10v12l1 21-2 21-1 7h-3z" fill="#FEFE7A"/>
<path transform="translate(425,439)" d="m0 0h13l3 2 1 5 1 81-1 15-3 1h-16l-2-7-1-18v-64l1-12 1-2zm9 1-10 1v100h14v-100z" fill="#FEFE81"/>
<path transform="translate(739,1136)" d="m0 0 10 1 10 5 5 6 2 7 10-1 12-3-1 2-13 4-9-1-6-8-5-5-7-1h-11l-6 3-8 6-3 6-2 10v10l2 13 2 5 4 8 5 5 5 2h12l7-3 7-11 6-6 7 1 9 2 5 4-10-2-10-4-2 7-6 9-8 7-11 2-12-2-8-6-4-5-4-11-2-12v-10l4-17 6-9 10-6z" fill="#FEFE83"/>
<path transform="translate(240,712)" d="m0 0h382v31h-39v-1l32-1 2-3 1-5v-13l-1-4-6-1-22-1h-188l-154 1-6 4v15l1 7 31 1v1h-34v-30z" fill="#000046"/>
<path transform="translate(1221,1137)" d="m0 0 30 1 12 6 6 12 2 10v22l-3 12-5 8-5 4-9 3h-29v-77zm30 4-16 1-9 2-1 8-1 34v22l3 3 3 1h19l7-1 3-3 7-17 2-14v-9l-4-16-5-6-1-3z" fill="#FEFE84"/>
<path transform="translate(1019,1302)" d="m0 0h23l13 2 9 8 4 8 2 12v19l-3 15-5 8-6 4-4 2-13 1h-20zm22 4-16 2-2 5-1 24v25l1 12 2 3 3 1h13l14-1 7-4 3-15 1-7v-17l-3-15-3-6-3-4h-2v-2z" fill="#FEFE77"/>
<path transform="translate(1164,1490)" d="m0 0 2 1-9 12-6 12-4 23v24l4 20 8 16 9 10 5 5 11 7 14 5 10 2h17l16-4 14-7 8-6 8-11 7-15 1-5-8-3-18-6v-1l10 1 16 6 2 2-1 7-2 5-2 8-6 10-11 12-8 5-21 5-2 1h-14l-14-3-16-5-10-6-4-2-4-5-5-4-4-6-6-8-5-13-3-17v-23l3-19 4-11 6-11 5-5z" fill="#FEFE86"/>
<path transform="translate(922,1116)" d="m0 0h9l6 1v1l-24 1v79l5 18 6 9 10 6 9 3 10 2h14l4-2 13-2 10-5 6-7 4-10 2-23 1-69h1l2 41-1 17v27l-2 10-3 10-7 8-9 6-10 2h-32l-5-3-9-3-10-7-6-7-4-11-2-11-1-3v-58l1-17 1-2z" fill="#FEFE82"/>
<path transform="translate(717,1311)" d="m0 0h3l11 28 3 10v5h-31l2-9 9-25z" fill="#FEFE7E"/>
<path transform="translate(1257,1302)" d="m0 0h59l2 2-42 1-12 4-3 7 3 9 4 1 42 1 7 1v19l-1 1-13 1-4 1-22 1-11 2-4 2-1 2v16l2 3 5 1 45 1v1h-56v-33h58v-16l-58-1z" fill="#FEFE90"/>
<path transform="translate(249,710)" d="m0 0h367l7 1v4l-1-3-382 1-1 30h13v1h-14l-1-1-1-19 1-12 2-1z" fill="#FEFE73"/>
<path transform="translate(923,1136)" d="m0 0 3 3 3 10-1 26-1 17 2 11 8 14 8 8-2 2-5-2-3-2v-2l-7-2-6-7-3-14-1-25 1-25 1-9z" fill="#0300AC"/>
<path transform="translate(993,1136)" d="m0 0 4 3 1 3v46l1 3v8l-2 7-6 9-3 2h-3v-7l2-5 1-14v-49l1-4z" fill="#0300AC"/>
<path transform="translate(525,794)" d="m0 0h45v96l-5-5-7-10-11-13-7-7-11-9-11-8v-1h5l9 7 6 5v2l4 2 5 4 6 7 6 3h5l1-3 1-15v-17l-1-31-1-2-4-1-35-2z" fill="#FEFE71"/>
<path transform="translate(809,1118)" d="m0 0h2v116h57l25 1v-20h1v21l-15 2h-36l-34-2-1-1-1-9v-94z" fill="#FEFE93"/>
<path transform="translate(1232,1283)" d="m0 0h88l-1 20-9-1 4-4v-8l-2-1-17-1-31-1h-16l-10 2-3 3-1 2v34l1 53 2 12 2 3v3h12v1h-18l-1-1z" fill="#000046"/>
<path transform="translate(704,1127)" d="m0 0 2 1-7 8-6 10-4 14-1 4v27l2 7 5 12 6 9 1 3 4 2 9 6 9 4 16 3h7l3-2 14-3 10-6 7-7 6-12 2-9h1v11l-4 10-6 9-7 6-5 2-9 2-8 2h-10l-13-2-8-3-8-2v-2h-2v-2l-5-2-7-6-5-2-2-3-5-17-3-12v-20l4-15 5-13 7-9z" fill="#FEFE7A"/>
<path transform="translate(833,1283)" d="m0 0h24v84l-4 16-6 8-10 7-5 1 5-4 4-4 3-5 5-3 2-10v-83h-15l-2 5h-1z" fill="#000046"/>
<path transform="translate(481,1365)" d="m0 0 2 3 8 28 3 8 5 14 5 12 12 12 5 9 3 9v17l2 12 5 9 6 4 9 11 9 10 7 9 5 6v1h-5l-9-7-4-8-9-10-12-14-6-13-2-8-1-22-2-5v-3h-2l-2-6h-2l-4-5-8-6-6-16-4-13-7-25z" fill="#00006E"/>
<path transform="translate(847,1297)" d="m0 0h4v38l-2 28-1 4-5 2-3-8-1-36 2-18 2-7z" fill="#0300AC"/>
<path transform="translate(1114,1472)" d="m0 0 3 1 1 9v142l-2 4-4 1h-19l-5-2v-1h26z" fill="#FEFE87"/>
<path transform="translate(1092,1467)" d="m0 0 19 3 3 1v2h-26l-1 98h-3l-6-8-12-20 1-3 8 6h5l2-7 1-8v-49l2-10z" fill="#FEFE6F"/>
<path transform="translate(850,1515)" d="m0 0h1v9l-2 9-2 10 1 18 3 15 4 8 1 3 4 2 8 7 6 3 10 2h18l17-6 10-10 4-6 4-3-1 5-7 11-7 8-7 4-10 3h-25l-10-4-2-1v-2l-4-2-5-5v-2h-2v-2l-4-2-7-14-2-9-1-12v-14l2-10 4-10z" fill="#00006B"/>
<path transform="translate(333,612)" d="m0 0h197l-1 33h-196l-1-2 1-5 2 3 1 2h190l1-2v-21l-1-4-7-1-17-1h-28l-132 1-7 3-2 3z" fill="#000046"/>
<path transform="translate(823,1116)" d="m0 0h13l3 3 1 7v81l1 4 47 1 4 1v2h-57v-97h-24v-1z" fill="#FEFE6D"/>
<path transform="translate(738,1331)" d="m0 0 4 4 3 6 8 14 3 8 1 10-4 3-5-1-6-7-24-1v-4l7-2 7-1 5-10v-18z" fill="#0300AC"/>
<path transform="translate(895,1472)" d="m0 0 13 2 12 2 5 2v2l7 1 13 12 8 11 6 13 3 12 1 9v17l-3 20-4 11-2 1 3-10 2-8v-32l-3-15-6-16-6-8-11-11-7-1-8-4-3-2-9-1-5-1h-17l-15 3-9 2-4-1 8-5 10-3z" fill="#000070"/>
<path transform="translate(913,1118)" d="m0 0h24l1 82 4 8 4 5 10 4 7 1v1h-9l-12-6-6-7-3-10-1-7-1-67h-11l-6 3-1 73h-1v-79z" fill="#00002E"/>
<path transform="translate(706,1283)" d="m0 0h26l6 13 15 39 6 15 11 29 7 18v3h-24l-5-11 1-3 4 7 6 4 1 1h9l1-10-5-16-8-16-6-14-6-17-10-24-5-10-3-1-19-1-5 2 1-5z" fill="#000034"/>
<path transform="translate(883,1283)" d="m0 0h1l-1 117h90v-19h1v21l-15 2h-59l-18-3-1-2-1-10v-92l1-12z" fill="#FEFE72"/>
<path transform="translate(1339,1283)" d="m0 0h85l1 2-1 18-6 8-1-2 1-2 1-18-7-1h-61l-7 1v9l2 3 45 1v1h-52z" fill="#000046"/>
<path transform="translate(836,1280)" d="m0 0h14l7 2v1h-24v38l-1 54-4 5-10 2-7-2-5-5-2-8v-5l2 2v3l3 1 2 4v3l5 1h7l4-3 1-19v-57l2-15z" fill="#FEFE7E"/>
<path transform="translate(1055,1184)" d="m0 0h36l9 4 5 6 1 2v7l-3 6-5 4-4 2h-39zm16 4-10 3-2 7v9l1 3 6 2h23l8-3 3-6v-7l-5-5-7-3z" fill="#FEFE76"/>
<path transform="translate(1025,1528)" d="m0 0 5 2 8 9 9 16 12 19 7 11 6 9 12 22v2h18l5-5 3-2v8l-3 5-3 1h-12l-5-2-4-3v-2l-3-1-7-16-12-15-5-5-13-22-13-21-5-8z" fill="#00006F"/>
<path transform="translate(1069,1288)" d="m0 0 5 1 2 1v2l4 2 6 5 6 11 2 14 2 4v27l-2 5-2 9-11 21-4 5-16 7-18 2h-28l-14-2v-1l40-1 11-1 12-4 10-6 5-4 7-10 5-14 2-16-1-15-2-11-6-15-9-10-6-5z" fill="#FEFE75"/>
<path transform="translate(1118,1323)" d="m0 0h1v56h8l3-7 3-18 3-3h2v27l-1 11-3 1-3 9h-10l-4-6z" fill="#000070"/>
<path transform="translate(1420,1475)" d="m0 0 2 4v12l-1 7-13 2-11 1h-41l-11 2-3 1-1 18 2 7 9 1 35 1v2h-50v-36h83z" fill="#FEFE77"/>
<path transform="translate(1020,1526)" d="m0 0h2v99h-5l-1-37v-57z" fill="#00002C"/>
<path transform="translate(594,1164)" d="m0 0h1l2 44v88l-1 17v108l-1 9h-1l-1-70v-55z" fill="#000047"/>
<path transform="translate(365,1409)" d="m0 0 1 4-4 12-7 11-8 8-5 4-1 5v39l-4 6-6 7-5 5-7 9-9 9-7 8-9 6 2-4 11-14 9-10 11-14 6-7 3-7 1-38 8-7 7-6 8-14z" fill="#00006A"/>
<path transform="translate(570,794)" d="m0 0 5 5 1 5 1 24-1 50-2 8-3 5h-1z" fill="#000067"/>
<path transform="translate(884,1283)" d="m0 0h87v19h-7l2-1-1-11-3-1h-62l-13 1-4 1z" fill="#00002D"/>
<path transform="translate(1279,1129)" d="m0 0 4 1 9 14 2 5 2 11 2 5-1 26-4 18-6 10-6 8h-2l-1 3-7 5-20 3h-36l-7-1v-2l42-1 16-4 9-5 6-5 7-11 4-12 3-18-1-11-3-16-5-12z" fill="#FEFE75"/>
<path transform="translate(418,562)" d="m0 0h29l8 1 3 8 1 1v20l-2 4-4 2-9 1-26 1-8-2-4-2-2-6v-18l1-8 2-1zm-10 2-1 30h48v-29l-11-1z" fill="#FEFE6F"/>
<path transform="translate(1056,1137)" d="m0 0h33l7 3 6 9-1 6-4 6h-4v3l-6 1h-32v-27zm21 4-16 2-2 7v10l3 2 7 1h10l13-2 2-10-2-7-5-3z" fill="#FEFE83"/>
<path transform="translate(1315,1118)" d="m0 0h88v20h-7l2-1 1-5 3-5h-2l-3-5-8-2h-64l-7 2v34l2 39v34l1 4h11v1h-17z" fill="#000047"/>
<path transform="translate(705,1144)" d="m0 0h3v10l-2 7-1 5-1 22v7l4 10v5l-5-2-5-13-3-12-2-5v-7l4-14 6-11z" fill="#0300AC"/>
<path transform="translate(1116,1289)" d="m0 0 1 2 1 31v71l3 5h10l3-8 2-1 1-11h1v22h-24v-109z" fill="#000046"/>
<path transform="translate(1096,1474)" d="m0 0h10l5 5 1 13v89l1 11h1v34h-26l-5-1-16-27-7-11 1-2 11 13 6 12 3 7 2 1v2l4 2 5 2h12l3-1 2-4v-135l-1-6-2-1h-10l-6 3v-3z" fill="#000045"/>
<path transform="translate(289,794)" d="m0 0h2l1 96-6-2v-92z" fill="#00002C"/>
<path transform="translate(1025,1286)" d="m0 0h34l9 3 6 3 9 9 6 12 3 9 2 18-1 14-2 10-5 12-4 6-5 6-11 7-2-1 8-6 5-5 4-5 3-9h2l2-5 3-12v-6l-2-8-4-22-5-12-7-8-12-6-8-1h-29z" fill="#000045"/>
<path transform="translate(718,1291)" d="m0 0h6l5 5 4 12 1 7-3 3-7-4-4-1-1-3-7 1-5 2v-10l3-7 5-4z" fill="#0200AB"/>
<path transform="translate(593,897)" d="m0 0h1l2 27v215l-1 12h-1v-71l-1-34z" fill="#000047"/>
<path transform="translate(1048,1117)" d="m0 0h57l11 6 8 8 4 7v12l-3 11-3 6v8l2 6 5 2 3 5 1 8-2 4h-1l-4-13-4-6-13-7v-3l6-4 6-8 2-5v-12l-4-10-5-6-7-4-8-3-51-1z" fill="#FEFE94"/>
<path transform="translate(565,1062)" d="m0 0v3l-11 14-7 7-5 6-8 7-17 12-23 14-2 3v17l-2-1v-2h-2l-1-10 3-6 4-5 3-3 6-1v-2l7-6 10-7 12-8 7-8 8-7 9-10 4-5z" fill="#000068"/>
<path transform="translate(811,1118)" d="m0 0h24v90l-4-5-2-81-1-1h-11l-4 3h-2z" fill="#00002F"/>
<path transform="translate(1203,1470)" d="m0 0h27l15 4 15 8 8 8 11 22v2l-6 2h-5l3-7-1-6-7-12-10-10-9-3-11-3-16-1-21 1-13 5-11 7-8 8v-3l10-10 16-8z" fill="#000040"/>
<path transform="translate(380,1365)" d="m0 0h1v9l-8 33-10 23-7 11-6 5-4 3h-3l-1 24-1 10h-1v-30l2-6 5-4 3-3 3-4h2l2-5 5-8 3-10 2-10 7-27 4-2v-2h2z" fill="#00006D"/>
<path transform="translate(857,1283)" d="m0 0h2l2 13-1 27-1 51-3 9-3 5-6 5v3h-2l-2 4-2 2h-7l-7 2-14 1-13-5v-3l10 3h16l9-2 11-7 4-5 4-9 2-10z" fill="#FEFE75"/>
<path transform="translate(695,1373)" d="m0 0h48l4 10 6 16 24 1 1-3v4l-19 1-7-1-2-5h-2l-3-5-3-8-5-4-5-1h-24l-8 1v2l-5 4-3 6h-2l-2 9-1 1h-27v-1l26-1 5-15z" fill="#FEFE75"/>
<path transform="translate(597,1403)" d="m0 0h1v245h-7l2-2 1-80h1l1 18z" fill="#004"/>
<path transform="translate(596,1204)" d="m0 0h2v199l-1 18h-1l-1-9v-99l1-17z" fill="#00002C"/>
<path transform="translate(966,1329)" d="m0 0h1v21l-5 1-37 2-11 2-1 2v19l5 1 15 1h26l14 1-2 2-63-1v-31l57-1z" fill="#FEFE70"/>
<path transform="translate(1403,1118)" d="m0 0h1v21l-46 1-5 2-7 2-2 6 1 11 53 1v2h-59v-27h57l7 1z" fill="#FEFE96"/>
<path transform="translate(996,1479)" d="m0 0h1l1 121 1 17h17v-29h1v35l-1 2h-17l-2-3-2-15v-125z" fill="#000047"/>
<path transform="translate(698,1332)" d="m0 0h3v8l-2 15 1 4h2l1 4-3 3-16 8-3-3 4-11 3-4 4-13 5-10z" fill="#0300AC"/>
<path transform="translate(1104,1161)" d="m0 0h3l1 3-1 11 3 9h2l2 4v4l-4 1-3-4-10-2v-2l-4-2-5-5-1-4 8-6 6-4z" fill="#0200AB"/>
<path transform="translate(433,607)" d="m0 0 8 1 5 1 84 1 1 1v33h-1v-32h-174v-1l50-1 2-1z" fill="#FEFEA3"/>
<path transform="translate(983,1118)" d="m0 0h24v69l-2 23-4 10-7 8-5 3-3-1 5-5 7-9 3-12 2-4v-11l2-9v-24l-1-24-2-9-3-2h-9l-3 4-2 7h-2z" fill="#004"/>
<path transform="translate(723,1470)" d="m0 0h27l12 3 17 9 5 4 9 13 5 12v3l-9 2 2-6v-6l-8-15-8-7-12-5-14-3h-22l-11 1-19 9-12 9-2 1 2-4 10-9 19-9z" fill="#00003C"/>
<path transform="translate(1184,1352)" d="m0 0 4 2 7 7 10 15 10 17 3 5v2h-26l-22-33 1-2 8 11 6 10 2 1v2h2l2 4 5 1h9l1-6-10-19-9-13z" fill="#004"/>
<path transform="translate(1264,1380)" d="m0 0h49l10 1v19h-70v-1l59-1 5-5v-7l-8-1-41-2-11-1v-1z" fill="#000047"/>
<path transform="translate(704,1283)" d="m0 0 1 3-20 52-13 34-10 26v2h-2l1-9 5-14 7-18 10-27 5-13 5-17 8-16z" fill="#FEFE7D"/>
<path transform="translate(421,809)" d="m0 0h19l23 3 16 4 12 5v2l2 1-5-1-21-6-17-3h-39l-17 3-20 6-16 7-7 4h-2v-2l21-11 14-5 26-5z" fill="#FEFE82"/>
<path transform="translate(799,1579)" d="m0 0 1 4-2 12-8 14-4 2-2 5-3 3-15 7-9 3-1 1-16 2-15-2-4-3h23l17-4 14-7 10-9 8-13z" fill="#FEFE7B"/>
<path transform="translate(1032,1118)" d="m0 0h67l12 5 8 7 4 8 1 4v12l-5 10-2 1 1-11v-13l-4-9v-2l-4-2-10-6-5-2h-49l-10 3-3 1-1 4z" fill="#000035"/>
<path transform="translate(1253,1569)" d="m0 0 10 1 16 6 2 2-1 7-2 5-2 8-6 10-11 12-8 5-21 5-2 1h-14l-6-1v-2l17-1 16-4 14-7 8-6 8-11 7-15 1-5-8-3-18-6z" fill="#FEFE7F"/>
<path transform="translate(701,1513)" d="m0 0h2l-3 9-2 11-1 18 2 18 4 13 7 9 4 5-5-2-3-3v-2l-4-2-5-6-4-12-2-10v-19h2v-7l5-16 1-2h2z" fill="#000030"/>
<path transform="translate(477,1205)" d="m0 0h1l1 29v37l1 36 5 37 2 8 3 21 2 12-2-1-5-22-7-49-2-33v-67z" fill="#FEFEFF"/>
<path transform="translate(1131,1199)" d="m0 0h1l1 12-9 17-9 6-8 3-7 1h-45l-10-1v-2l51-1 16-4 9-6 4-7 3-6z" fill="#FEFE74"/>
<path transform="translate(294,1060)" d="m0 0h2l4 5 5 4 9 12 10 8 6 5v2l4 2 14 10 19 11 3 6-5-2-19-11-12-8-10-8-16-16-13-17z" fill="#000068"/>
<path transform="translate(1257,1346)" d="m0 0 59 1v1l-13 1-4 1-22 1-11 2-4 2-1 2v16l2 3 5 1 45 1v1h-56z" fill="#FEFE6E"/>
<path transform="translate(291,794)" d="m0 0 4 1v39l-1 13v12l2 23 2 1-5 7-2-1z" fill="#FEFEFE"/>
<path transform="translate(916,1472)" d="m0 0 8 1 11 5 12 8v2l4 2 6 7 8 13 2 5 4 19v10l-1 4h-2v9h-1l-1-19-3-17-6-16-7-10-8-9-9-6-17-7z" fill="#FEFE87"/>
<path transform="translate(1360,1379)" d="m0 0 66 1 1 1v19h-71v-1h62l3-9-2-5-20-2-39-2z" fill="#000047"/>
<path transform="translate(908,1303)" d="m0 0h63v1l-41 1-16 4-1 2-1 15 49 1 5 1v1h-58z" fill="#FEFE89"/>
<path transform="translate(1024,1471)" d="m0 0 6 4 3 3 6 11 6 10 7 11 3 5 8 15 3 8-1 3-11-17-10-17-17-28-3-5z" fill="#FEFE83"/>
<path transform="translate(299,991)" d="m0 0 2 3 5 21 8 18 9 16 11 13 7 8 11 9h-3l-12-7-1-3h-2l-7-9-5-6-5-7-6-12-6-8-4-11-2-15z" fill="#00006B"/>
<path transform="translate(1196,1118)" d="m0 0h60v1l-31 1-22 2-4 4-1 4v54l1 38 2 11 4 1-9 1z" fill="#000047"/>
<path transform="translate(1337,1533)" d="m0 0h75v25h-76v-1l70-1 2-11-2-7-8-2-40-1-21-1z" fill="#000047"/>
<path transform="translate(286,1295)" d="m0 0h1l1 222 2 2 2 23 1 2-3-1v-5l-3-1-1-3z" fill="#00006F"/>
<path transform="translate(1189,1285)" d="m0 0h5l7 6 5 3 4 5 1 8v20l-5 10h-2l-2 4-2 3h-2l-2 5-2 2 1 4 3 9-3-1-7-8-6-4-1-3 12-5 12-11 4-11v-10l-3-10-6-8-6-5-5-2z" fill="#FEFE81"/>
<path transform="translate(1398,1164)" d="m0 0h1v19l-1 1-42 1-10 4-2 3v12l-1 1v5l6 1 44 1 12 1v1h-18l-47-1-1-13v-17l3-1 55 1v-13z" fill="#FEFE7C"/>
<path transform="translate(1186,1508)" d="m0 0v3l-4 8-4 14v30l4 15 6 11 8 7 9 4 4 1h13l7-1-2 2-3 1h-16l-10-3-9-6-7-8-6-13-2-8-1-6v-13l3-20 5-12z" fill="#00003E"/>
<path transform="translate(1242,1280)" d="m0 0h73l6 2 2 2v12l-1 1-1 7-3-1 2-20h-89v-1z" fill="#FEFE80"/>
<path transform="translate(973,1381)" d="m0 0h1v21l-15 2h-59l-18-3v-1h91z" fill="#FEFE94"/>
<path transform="translate(1257,1329)" d="m0 0h58l1 1v16l-1 1h-56v-1l48-1v-2h2v-8l-1-1-25-2-24-1z" fill="#000047"/>
<path transform="translate(437,465)" d="m0 0h1v76h-13v-6l7 1 1-4 1-48 2-7z" fill="#00002C"/>
<path transform="translate(833,1283)" d="m0 0h24v84l-1 5h-1l-1-80-2-3-10-1-6 2-2 5h-1z" fill="#000034"/>
<path transform="translate(1253,1140)" d="m0 0 7 2 5 5 5 12 1 7v22l-3 12-5 8-5 4-3 1 2-4 7-15 2-7 1-10v-9l-4-16-5-6v-3l-5-1z" fill="#FEFE7F"/>
<path transform="translate(747,1327)" d="m0 0 2 2 1 3 3 3 6 15 11 29 7 18v3h-24l-5-11 1-3 4 7 6 4 1 1h9l1-10-5-16-8-16-6-14-4-12z" fill="#000034"/>
<path transform="translate(1146,1302)" d="m0 0h27l7 2 5 6 1 2v10l-4 7-7 3h-37v-29h1v27l36-1 3-3h2l1-14h-2l-1-3-8-4v-2h-24z" fill="#FEFEB6"/>
<path transform="translate(789,1198)" d="m0 0h1v11l-4 10-6 9-7 6-5 2-9 2-8 2h-10l-13-2-8-3v-2l20 4h7l3-2 14-3 10-6 7-7 6-12z" fill="#FEFE7D"/>
<path transform="translate(1357,1367)" d="m0 0h2l1 7-1 7-1 2v6l-2 2h-8l-4-3 1-9 5-8z" fill="#0300AC"/>
<path transform="translate(1339,1283)" d="m0 0h85l1 2-1 18-3 2-1-16-3-2-10-2-60 1-6 4v11l2 1h-4z" fill="#00002C"/>
<path transform="translate(438,440)" d="m0 0 3 1 1 5 1 81h-1l-2-34-1 46h-1z" fill="#FFFF6D"/>
<path transform="translate(1069,1288)" d="m0 0 5 1 2 1v2l4 2 6 5 6 11 2 14 2 4v27l-2 5-2 9-6 11h-2l2-5 5-14 2-16-1-15-2-11-6-15-9-10-6-5z" fill="#FEFE82"/>
<path transform="translate(408,564)" d="m0 0h39l8 1v29h-48l1-6 4 4h36l3-8-1-13-2-3-3-1h-30l-5 2-2 3z" fill="#000034"/>
<path transform="translate(393,794)" d="m0 0h132v1l-62 1-4 1h-64l-2-1z" fill="#FFFF6D"/>
<path transform="translate(1121,1280)" d="m0 0h53l13 2 2 1v2l-11-1-64-1v49h-1l-1-50z" fill="#FEFE9E"/>
<path transform="translate(893,1215)" d="m0 0h1v21l-15 2h-36l-32-2 1-2h56l25 1z" fill="#FEFE8C"/>
<path transform="translate(1337,1602)" d="m0 0h86l-1 24h-62v-1h57l1-4v-15l-23-2-58-1z" fill="#000047"/>
<path transform="translate(1427,1380)" d="m0 0h1l1 22-15 2h-65l-10-2v-1h88z" fill="#FFFF6D"/>
<path transform="translate(411,813)" d="m0 0h39l25 5 18 6 16 8 15 9 6 5h-3l-3-2-6-2-5-4v-2l-6-2-7-3v-2l-4-1-19-6-13-4-21-3h-26l-17 2-10 1 4-2z" fill="#00003A"/>
<path transform="translate(479,1228)" d="m0 0h1l1 52 2 35 5 34v8h-1l-4-19-4-31-1-36v-37z" fill="#FFFF6D"/>
<path transform="translate(1349,1164)" d="m0 0h49l-1 19h-55v-1h50v-13l-26-2-17-2z" fill="#000047"/>
<path transform="translate(422,573)" d="m0 0h16l3 2 1 7-4 4h-11l-7-3-1-7z" fill="#0300AC"/>
<path transform="translate(855,1511)" d="m0 0h4l-2 5-5 12-2 10v20l3 14 4 9 6 9 10 7 4 3-5-1-9-6-7-6-5-9-3-11-2-19 1-13 2-5 2-15z" fill="#000036"/>
<path transform="translate(922,1116)" d="m0 0h9l6 1v1l-24 1-1 81-2-3-1-3v-58l1-17 1-2z" fill="#FEFE6D"/>
<path transform="translate(996,1283)" d="m0 0h57l14 4 3 2-1 2-6-3-4-1h-35l-24 2-4 5z" fill="#00002D"/>
<path transform="translate(835,1215)" d="m0 0h58v20h-25v-1l19-1v-13l-5-1-47-3z" fill="#00003E"/>
<path transform="translate(1257,1119)" d="m0 0 13 4 8 5 6 7 7 14 3 13 2 12-1 12-2-2-4-27-5-13-5-9-7-6-6-4v-2l-9-2z" fill="#00003E"/>
<path transform="translate(1396,1296)" d="m0 0h12l3 2v9l-5 5-8 3-2-2-2-8 1-8z" fill="#0300AC"/>
<path transform="translate(1340,1213)" d="m0 0h66l1 1v22l-9 1h-31v-2l16-1h22v-19h-65z" fill="#FEFEC4"/>
<path transform="translate(1114,1283)" d="m0 0h64l14 3 6 4 7 8 4 8v11l-2-3-5-13-6-10-9-4-5-1-48-1-15 2-5 3z" fill="#00002F"/>
<path transform="translate(1340,1215)" d="m0 0h65v19h-10l4-1v-12l-4-2-40-2-15-1z" fill="#000047"/>
<path transform="translate(564,975)" d="m0 0h1l1 14-7 30-8 18-8 11-9 11-3 2 2-4 9-13 10-18 7-23 4-20z" fill="#00006D"/>
<path transform="translate(1020,1526)" d="m0 0h2v64h-1l-1-28-2 5-1 13h-1v-49z" fill="#000047"/>
<path transform="translate(1018,1302)" d="m0 0h1v79h-1v-21l-4-2v-36l2-5 1-1z" fill="#000043"/>
<path transform="translate(1242,1473)" d="m0 0h7l11 7 10 9 4 4 2 4 2 8 2 5v5l-4 1-1 3-8 3-4 1h-14l1-2 7-3 22-4-10-21-9-10-15-8z" fill="#FEFE8D"/>
<path transform="translate(592,1457)" d="m0 0h1l1 90v99l-1 1h-8l5-6 1-2 1-16z" fill="#000070"/>
<path transform="translate(908,1329)" d="m0 0h58v19l-1 1h-8l2-1 1-12v-3l-52-2z" fill="#000047"/>
<path transform="translate(1306,1532)" d="m0 0h1l1 10v80l4 2 41 1v1h-47z" fill="#000031"/>
<path transform="translate(1e3 1361)" d="m0 0 4 1 4 8-1 9-3 7-5-2-3-2v-19z" fill="#0300AC"/>
<path transform="translate(1220,1139)" d="m0 0h1v63l-1 7h-1l-1-13-2-12v-18l3-23z" fill="#00003F"/>
<path transform="translate(521,991)" d="m0 0 4 2 3 3 1 3v7l-4 15-13 32-8 19-2 1 3-9 5-16 5-13 4-10 5-8 1-15z" fill="#00006A"/>
<path transform="translate(589,712)" d="m0 0h33v31h-39v-1l32-1 2-3 1-5v-13l-1-4-6-1-22-1z" fill="#000047"/>
<path transform="translate(1344,1280)" d="m0 0h44v2h9v1h-58v20h17v1h-18l-1-1-1-21 1-1z" fill="#FEFEA6"/>
<path transform="translate(354,988)" d="m0 0h5l-1 2-13 2-3 1v2l-4 3-2 7v8l1 6 3 1 6 12 3 14 2 5-1 3-14-33-3-11v-12l3-5 4-3z" fill="#00006A"/>
<path transform="translate(1313,1474)" d="m0 0h18l-2 2-20 1-1 12v31l1 17v85h-1l-1-80-1-10v-52l3-5z" fill="#000047"/>
<path transform="translate(1082,1307)" d="m0 0h2l3 7 5 20v6h2l-1 14-2 10-5 12-4 6-5 6-11 7-2-1 8-6 5-5 4-5 3-9h2l2-5 3-12v-6l-2-8-4-22z" fill="#000047"/>
<path transform="translate(365,1409)" d="m0 0 1 4-4 12-7 11-8 8-5 4-1 5-1 30-3 3v-38l8-7 7-6 8-14z" fill="#000047"/>
<path transform="translate(497,766)" d="m0 0h101l-1 18-2 5-1 13h-1l-1-31-5-2-8-1-82-1z" fill="#000035"/>
<path transform="translate(1139,1303)" d="m0 0h31v1l-15 2-10 2-1 4v16l31 1v1l-29 1-7-1z" fill="#FFFF6D"/>
<path transform="translate(294,861)" d="m0 0h2v2l8 1 9-3 2 1-10 11-7 9-3 1z" fill="#FEFE74"/>
<path transform="translate(289,794)" d="m0 0h2l-1 16-2 12v47l4 21-6-2v-92z" fill="#00006F"/>
<path transform="translate(907,1348)" d="m0 0h50v1h-49v31h59v1l-5 1v1h-34l-20-1-1-1z" fill="#000047"/>
<path transform="translate(1233,1283)" d="m0 0h87l-1 13h-1l-1-7-3-2-19-1-10-1h-32l-14 2-6 2z" fill="#00002C"/>
<path transform="translate(335,1449)" d="m0 0h1v41l-6 8-10 12-2-2 2-3h2l1-5 6-8 2-5 1-6 1-27z" fill="#FEFE78"/>
<path transform="translate(835,1118)" d="m0 0h1l1 18v62l1 13 2 1 33 1 1 2h-39z" fill="#FEFEFE"/>
<path transform="translate(768,1191)" d="m0 0 20 6 1 1-1 9-6 12-9 9-2-1 6-7 6-15-1-4-1-2-10-1-5 2-2 1 2-5z" fill="#000036"/>
<path transform="translate(384,1320)" d="m0 0 2 2-1 21-3 21-1 1-1 7h-2v2l-3 1 2-14 4-24z" fill="#00004B"/>
<path transform="translate(459,892)" d="m0 0h26v50l-13-1v-1l8-1 3-4v-27l-4-8-5-5-12-1z" fill="#000068"/>
<path transform="translate(1219,1115)" d="m0 0h26l16 1 14 8 1 2-18-6-1-1-55-1-6-1v-1z" fill="#FEFE95"/>
<path transform="translate(1016,1588)" d="m0 0h1v35l-1 2h-17l-2-3v-22h1l1 17h17z" fill="#000070"/>
<path transform="translate(1232,1328)" d="m0 0h2l1 53 2 12 2 3v3h12v1h-18l-1-1z" fill="#000047"/>
<path transform="translate(996,1324)" d="m0 0h1l1 55 1 1 2 19 53-1-2 2h-57z" fill="#000035"/>
<path transform="translate(785,1361)" d="m0 0h18l2 6 1 8-4-5-6-3h-7l-3 3 1 10 6 10-1 2-5-6-3-7-1-5v-11z" fill="#000046"/>
<path transform="translate(902,1286)" d="m0 0h62l5 4v11l-5 1 2-1-1-11-3-1h-72l3-2z" fill="#000047"/>
<path transform="translate(1312,1627)" d="m0 0h107v1l-10 1h-35l-14 1-31-1h-9l-8-1z" fill="#FFFF6D"/>
<path transform="translate(1250,1569)" d="m0 0 10 2 18 6 2 3-5 13-3 6-1-3 2-6v-8l-3-3-6-2h-14l-1 2z" fill="#000032"/>
<path transform="translate(771,1569)" d="m0 0 14 4 14 5-1 7-3 7h-1l-1-9-4-4-9-3h-6l-4 4-1 3h-2l-1 4h-2l2-6z" fill="#000045"/>
<path transform="translate(1316,1118)" d="m0 0h87v20h-7l2-1 1-5 3-5h-2l-3-5-8-2-71-1-1 5h-1z" fill="#00002C"/>
<path transform="translate(1087,1473)" d="m0 0h1l1 7h1l-1 21 1 36v16l-1 6h-2z" fill="#000047"/>
<path transform="translate(878,1470)" d="m0 0h28l4 2h-25l-12 2-5 2h-4l-1 3-5 3h-2v2l-9 3-10 8v-3l10-10 16-8 9-3z" fill="#00002F"/>
<path transform="translate(1366,1337)" d="m0 0v3l-7 11h-2l-2 4-8 9-5 9-4 3h-2l-1 4v14l3 4 7 1v1h-13l1-23 13-16 14-17z" fill="#000040"/>
<path transform="translate(430,858)" d="m0 0h7l6 3 1 2-2 1-20 2-5 3-6 7-3 7-2-2v-6l7-7 14-9z" fill="#00006D"/>
<path transform="translate(239,711)" d="m0 0h89v1l-88 1-1 30h13v1h-14l-1-1-1-19 1-12z" fill="#FEFEB2"/>
<path transform="translate(305,659)" d="m0 0m-17 1h17l53 1v1h-69v32h-2l-1-3v-29z" fill="#FEFEBF"/>
<path transform="translate(753,1116)" d="m0 0 8 2 14 7 7 7 6 13 1 5-3 2h-4v-10l-2-7h-2v-2l-4-2-6-5v-3l-5-1-10-5z" fill="#000042"/>
<path transform="translate(1279,1129)" d="m0 0 4 1 9 14 2 5 2 11 2 5-1 26-3 7-2 1 3-20-1-11-3-16-5-12z" fill="#FEFE82"/>
<path transform="translate(1105,1122)" d="m0 0 6 1 8 7 4 8 1 4v12l-5 10-2 1 1-11v-13l-3-11-7-6z" fill="#003"/>
<path transform="translate(848,1389)" d="m0 0 2 1-3 3v3h-2l-2 4-2 2h-7l-7 2-14 1-13-5v-3l10 3h16l9-2 11-7z" fill="#FEFE86"/>
<path transform="translate(983,1118)" d="m0 0h24v27h-2l-1-13-2-9-3-2h-9l-3 4-2 7h-2z" fill="#000042"/>
<path transform="translate(947,1492)" d="m0 0 6 5 7 12 5 16 2 13v20h-1l-1-16-4-21h-2l-4-11-4-8-3-7z" fill="#000031"/>
<path transform="translate(1007,1118)" d="m0 0h1l2 41-1 17v27l-2 7h-2v-12l1-11z" fill="#FEFE79"/>
<path transform="translate(514,661)" d="m0 0h61l2 10v15l-2 9-3-1 1-32h-59z" fill="#FEFEBE"/>
<path transform="translate(730,1467)" d="m0 0h15l6 1v2l8 1-4 1-5-1h-27l-11 3-16 7 2-4 10-6 12-3z" fill="#FEFEB4"/>
<path transform="translate(1233,1400)" d="m0 0h20l68 1v1l-10 1h-67l-11-2z" fill="#FFFF6D"/>
<path transform="translate(935,1531)" d="m0 0 2 2 1 7v28l-3 9-7 10-9 9-4 1 5-5 7-8 5-11 3-14z" fill="#00003D"/>
<path transform="translate(1197,1364)" d="m0 0h2l7 8 6 9 7 16v4l-9 2h-13l-4-2 4-1h21l-9-16-12-19z" fill="#FEFE81"/>
<path transform="translate(290,1058)" d="m0 0h1v12l-1 15-2 3-1 64h-1v-78l2-10z" fill="#000070"/>
<path transform="translate(878,1467)" d="m0 0h19v2h9v1l-28 1-13 3-16 8-6 4 2-4 7-5h2l1-3 10-3 3-2z" fill="#FEFEAC"/>
<path transform="translate(1203,1467)" d="m0 0h21v2h7l8 2-4 1-5-1h-27l-13 4-14 6 1-3 10-6z" fill="#FEFEC8"/>
<path transform="translate(971,1380)" d="m0 0h2v20h-12l4-5h2v-9l-5-2v-2h-6v-1z" fill="#000042"/>
<path transform="translate(912,1198)" d="m0 0 2 3 4 15 6 9 10 6 9 3 10 2 13 1-1 2h-19l-5-3-9-3-10-7-6-7-4-11z" fill="#FEFE95"/>
<path transform="translate(1115,1177)" d="m0 0 5 2 5 5 4 8 2 8-1 6-3 9-4 8-9 7-4 1 3-3 8-7 5-10 1-9-3-12-6-9v-2l-3-1z" fill="#00003F"/>
<path transform="translate(762,1471)" d="m0 0 11 4 7 6 6 4 7 8 3 7 3 5 1 9h-2l-7-17-8-11-9-6-15-7z" fill="#FEFE8E"/>
<path transform="translate(515,1153)" d="m0 0 4 2 3 3v2l5 2 6 5 8 7 2 3v6l-2-4-3-5-8-5-13-5-3-2z" fill="#FEFE8D"/>
<path transform="translate(1261,1485)" d="m0 0 4 2 6 8 8 17v2l-6 2h-5l3-7-1-6-4-7-3-9h-2z" fill="#00002F"/>
<path transform="translate(265,766)" d="m0 0h42v1l-30 1-9 3-2 4-1 59h-1v-67z" fill="#000041"/>
<path transform="translate(912,1119)" d="m0 0 1 2 5-1h11l3 1 2 6-1 16h-1l-1-21h-11l-6 3-1 73h-1z" fill="#000047"/>
<path transform="translate(1088,1472)" d="m0 0 26 1v39h-1l-1-20-1-2-1-11-4-4h-10l-6 2-1 5h-1z" fill="#000037"/>
<path transform="translate(1392,1473)" d="m0 0 21 1 4 3 2 5h1v15h-30v-1l23-1 2-3v-13l-1-2-6-1-16-1z" fill="#000043"/>
<path transform="translate(687,1164)" d="m0 0h1l2 27 3 11 6 8 6 11 8 7h-3l-8-6-7-10-5-11-2-9-1-1z" fill="#000042"/>
<path transform="translate(517,1164)" d="m0 0 10 3 8 4 5 4 1 2v7l-5 5-11 5-3-1 9-3 1-3h2l1-3v-7l-7-7-10-4z" fill="#000042"/>
<path transform="translate(748,1386)" d="m0 0 3 4 4 4 5 4h9l1-11h3l4 10v3h-24l-5-11z" fill="#000047"/>
<path transform="translate(418,562)" d="m0 0h29l8 1v2h-41l-6-1v26h-1v-27z" fill="#FEFEA9"/>
<path transform="translate(1176,1560)" d="m0 0 2 3 4 15 6 11 8 7 9 4 4 1h13l7-1-2 2-3 1h-16l-10-3-9-6-7-8-3-6-3-13z" fill="#000036"/>
<path transform="translate(1299,1331)" d="m0 0h12l2 2v9l-2 3 4 2h-56v-1l48-1v-2h2v-8l-1-1-9-1z" fill="#000047"/>
<path transform="translate(1196,1184)" d="m0 0h2l1 38 2 11 4 1-9 1z" fill="#000046"/>
<path transform="translate(984,1152)" d="m0 0h1l2 30-1 10-2 3-2 10-1-4 1-7 1-41z" fill="#000047"/>
<path transform="translate(932,1178)" d="m0 0h1l2 10 1-5h1l1 17 4 8 4 5 10 4 7 1v1h-9l-12-6-6-7-3-10-1-7z" fill="#000039"/>
<path transform="translate(477,820)" d="m0 0 8 1 13 5 20 11 12 9h-3l-3-2-6-2-5-4v-2l-6-2-7-3v-2l-4-1-19-6z" fill="#000042"/>
<path transform="translate(439,478)" d="m0 0h1l2 33v16l-2 14h-2z" fill="#FEFEFF"/>
<path transform="translate(1337,1602)" d="m0 0h86l-1 24-4-1 2-1v-17l-1-3h-25l-57-1z" fill="#00002D"/>
<path transform="translate(1008,1298)" d="m0 0h6l-1 7-4 10h-4l-1-2v-9l3-5z" fill="#0300AC"/>
<path transform="translate(1195,1363)" d="m0 0 5 5 18 30v1h-11l2-4-2-9-8-15-4-6z" fill="#00002F"/>
<path transform="translate(1204,1308)" d="m0 0h2l2 6 2-3v10l-4 11-9 9-2-1 3-3 5-10 1-5z" fill="#000042"/>
<path transform="translate(746,1126)" d="m0 0h12l3 3 1 4-1 2h-7l-9-5-1-3z" fill="#0300AC"/>
<path transform="translate(1362,1533)" d="m0 0h50v25h-4l2-8v-9l-3-5-6-1-39-1z" fill="#00002C"/>
<path transform="translate(516,1442)" d="m0 0 5 5 3 5 2-1v9l-1 12 1 12 8 16-4-2-5-9-2-12v-17l-4-12-3-4z" fill="#000047"/>
<path transform="translate(323,1187)" d="m0 0 12 6 27 7-3 2-15-1-9-4v-2l-6-2-6-4z" fill="#FEFE8E"/>
<path transform="translate(855,1511)" d="m0 0h4l-2 5-5 12-2 10h-1l-1 23h-1l-1-18 2-10 2-9 1-9z" fill="#000042"/>
<path transform="translate(445,566)" d="m0 0 5 1 3 4v18l-3 5h-43l1-6 4 4h36l3-8-1-13-2-3z" fill="#000047"/>
<path transform="translate(1387,1531)" d="m0 0h26l3 8v13l-2 5h-1v-24h-26z" fill="#FFFF6D"/>
<path transform="translate(474,1205)" d="m0 0h1v10l-2 9-1 67h-1v-72l2-12z" fill="#000070"/>
<path transform="translate(349,1147)" d="m0 0m-1 1 1 3-2 2v7l-5 5-12 5-4 1 2-4 12-6 2-5z" fill="#FEFE8E"/>
<path transform="translate(1257,1119)" d="m0 0 13 4 8 5 6 7 5 9-1 3-5-8v-2l-4-2-7-6-6-4v-2l-9-2z" fill="#004"/>
<path transform="translate(394,814)" d="m0 0h9v1l-20 5-19 7-13 7h-2v-2l21-11 14-5z" fill="#FEFE9D"/>
<path transform="translate(1340,1215)" d="m0 0h65v19h-5l2-1 2-13-5-2-2-1-57-1z" fill="#00002C"/>
<path transform="translate(551,662)" d="m0 0h22v32h-25v-1l21-1 2-7v-11l-2-8-1-2-17-1z" fill="#00003D"/>
<path transform="translate(1273,1515)" d="m0 0h6l-3 1-1 3-8 3-4 1h-14l1-2 7-3z" fill="#FEFE7E"/>
<path transform="translate(730,1116)" d="m0 0h22v1l-20 1-11 4-11 8-6 2-4 3 2-4 7-6 14-7z" fill="#00003F"/>
<path transform="translate(701,1513)" d="m0 0h2l-3 9-4 10-2 14-1 16-2-3v-19h2v-7l5-16 1-2h2z" fill="#000050"/>
<path transform="translate(1042,1115)" d="m0 0h26l30 1v1l-66 1 2-2z" fill="#FFFF6D"/>
<path transform="translate(481,1330)" d="m0 0h2l3 18 4 25 2 12-2-1-5-22-4-26z" fill="#FEFEFC"/>
<path transform="translate(289,794)" d="m0 0h2l-1 16-2 12-1 10h-1v-36z" fill="#000047"/>
<path transform="translate(669,1575)" d="m0 0 2 2 4 7 8 15 3 6 7 7h-3l-8-8-8-13-5-12z" fill="#000041"/>
<path transform="translate(666,1385)" d="m0 0h1l1 10 3 3h10l4-4h2l1-2-1 7-1 1h-24l-1-2z" fill="#000041"/>
<path transform="translate(785,1489)" d="m0 0 5 5 6 12 2 5v3l-9 2 2-6v-6l-6-12z" fill="#00002E"/>
<path transform="translate(1316,1161)" d="m0 0h1l1 72h14v1h-17z" fill="#00002C"/>
<path transform="translate(455,564)" d="m0 0h1l2 7 1 1v20l-2 4-3-1z" fill="#FFFF6D"/>
<path transform="translate(1092,1467)" d="m0 0 19 3 3 1v2h-25v-3z" fill="#FEFE91"/>
<path transform="translate(310,916)" d="m0 0h2l-8 24-3 12-1 8h-1v-11l5-24 4-7h2z" fill="#000069"/>
<path transform="translate(1375,1472)" d="m0 0h45v10l-2 2-3-8-2-1-38-2z" fill="#00002D"/>
<path transform="translate(332,1168)" d="m0 0 2 1-5 3-3 3-2 10h2l5 5 7 3-3 1-10-5-6-7-1-3 6-7z" fill="#000046"/>
<path transform="translate(720,1335)" d="m0 0 4 4v7l-9 1-1-1v-6l2-4z" fill="#FEFE37"/>
<path transform="translate(1088,1366)" d="m0 0 1 4-5 10-7 8-11 7-2-1 8-6 5-5 4-5 3-9z" fill="#000042"/>
<path transform="translate(1020,1526)" d="m0 0h1v12l-1 2h-2l-1 40h-1v-49z" fill="#000070"/>
<path transform="translate(1388,1280)" d="m0 0h26l11 2 1 1v7h-1l-1-6-27-1-9-1z" fill="#FEFE6E"/>
<path transform="translate(1299,1381)" d="m0 0h24v19h-10v-1h6l1-11-3-5-18-1z" fill="#000030"/>
<path transform="translate(781,1198)" d="m0 0h5l1 8-5 13-9 9-2-1 6-7 6-15-1-4z" fill="#004"/>
<path transform="translate(1218,1156)" d="m0 0h1v38l-2-1-1-9v-18l1-9z" fill="#000047"/>
<path transform="translate(710,1170)" d="m0 0h1l3 22 5 13 8 7-2 1-8-6-5-9-2-10z" fill="#000043"/>
<path transform="translate(1e3 1145)" d="m0 0h2v42l-1 11-2 1-1-3v-7l2-9z" fill="#000046"/>
<path transform="translate(785,1361)" d="m0 0h18l2 6 1 8-2-2-1-6-5-2-2-1h-8l-3 4-2 3v-8z" fill="#000036"/>
<path transform="translate(1189,1285)" d="m0 0h5l7 6 5 3 4 5 1 8v15l-2 1v-12l-3-10-6-8-6-5-5-2z" fill="#FEFE95"/>
<path transform="translate(1031,1538)" d="m0 0 5 5 6 9 6 11 12 20-1 2-6-9-10-17-12-19z" fill="#000042"/>
<path transform="translate(1416,1381)" d="m0 0h11v19h-7l2-1 1-13-2-3-5-1z" fill="#000031"/>
<path transform="translate(611,714)" d="m0 0h7l2 3v21l-3 5h-34v-1l32-1 2-3 1-5v-13l-1-4-6-1z" fill="#000047"/>
<path transform="translate(365,1409)" d="m0 0 1 4-4 12-7 11-8 8-3-1 5-5 7-9 8-17z" fill="#000046"/>
<path transform="translate(1081,1301)" d="m0 0h2l6 12 3 9 1 8v10h-1l-4-19-6-17z" fill="#00002F"/>
<path transform="translate(1059,1373)" d="m0 0 3 1-6 4-4 2-13 1h-20l1-2h17l5-2 13-1z" fill="#FEFEC3"/>
<path transform="translate(1112,1597)" d="m0 0h2v28h-6l2-1 1-19z" fill="#00002C"/>
<path transform="translate(1055,1184)" d="m0 0h1l1 27 13 2 17 1v1h-32z" fill="#FEFEFD"/>
<path transform="translate(1389,1119)" d="m0 0h13l1 7v12h-7l2-1 1-5 3-5h-2l-3-5-8-2z" fill="#000047"/>
<path transform="translate(1196,1118)" d="m0 0h60v1l-53 1-4 2-2 5h-1z" fill="#00002D"/>
<path transform="translate(1254,1574)" d="m0 0h10l11 5 2 3v6l-5 11-1-3 2-6v-8l-3-3-6-2-12-1z" fill="#000046"/>
<path transform="translate(795,1514)" d="m0 0 3 1-14 7-10 1-4-2 13-4z" fill="#FEFE86"/>
<path transform="translate(579,767)" d="m0 0h12l3 2 2 6v9l-2 18h-1l-1-31-5-2-8-1z" fill="#000047"/>
<path transform="translate(1094,1347)" d="m0 0h2v8l-2 5-2 9-6 11h-2l2-5 5-14z" fill="#FEFE7E"/>
<path transform="translate(1191,1300)" d="m0 0 5 2 1 5v11l-2 2-2-7-3-8z" fill="#0300AC"/>
<path transform="translate(1247,1513)" d="m0 0 21 3-4 2-9 2-6 2-2-6z" fill="#000046"/>
<path transform="translate(1290,1201)" d="m0 0 1 3-6 12-7 8-4 3-2-1 4-5 4-6 6-7z" fill="#000042"/>
<path transform="translate(1342,1369)" d="m0 0 1 2-5 5h-2l-1 4v14l3 4 7 1v1h-13l1-23z" fill="#004"/>
<path transform="translate(954,1330)" d="m0 0h12v18l-2 1-3-2 1-5v-7l-1-3-7-1z" fill="#000032"/>
<path transform="translate(378,1355)" d="m0 0 1 2 4-1-1 8-1 1-1 7h-2v2l-3 1 2-14z" fill="#00004A"/>
<path transform="translate(707,1475)" d="m0 0 3 1-3 3-13 7-10 8v-3l11-10z" fill="#000038"/>
<path transform="translate(831,1173)" d="m0 0h1l3 27v8l-4-5z" fill="#000047"/>
<path transform="translate(704,1127)" d="m0 0 2 1-7 8-6 10-2 3-1-5 4-8 5-6z" fill="#FEFE82"/>
<path transform="translate(777,1127)" d="m0 0 5 1 6 7 2 11v5l-2-1-3-10-5-9z" fill="#FEFE88"/>
<path transform="translate(726,1115)" d="m0 0h27v1l-23 1-14 5-5 3h-2v-2l9-6z" fill="#FEFEBF"/>
<path transform="translate(383,892)" d="m0 0h23l-1 2-13 1-5 4h-3z" fill="#000061"/>
<path transform="translate(935,1531)" d="m0 0 2 2 1 7v28l-2 1-1-10z" fill="#004"/>
<path transform="translate(811,1224)" d="m0 0 2 2 2 5 1 1 43 1v1l-48 1-1-3z" fill="#000047"/>
<path transform="translate(1174,1546)" d="m0 0h1l1 6h1v15l2 11-2-2-3-11-1-6v-12z" fill="#000047"/>
<path transform="translate(1032,1198)" d="m0 0h1l1 23 2 9 1 3 4 1-9 1z" fill="#000041"/>
<path transform="translate(1279,1129)" d="m0 0 4 1 9 14 2 5v6l-2 1-5-14-7-11z" fill="#FEFE87"/>
<path transform="translate(264,1602)" d="m0 0h1l1 10 1 34v2h-3z" fill="#000043"/>
<path transform="translate(669,1373)" d="m0 0h2l-3 9-6 17-2 1 1-9 5-14z" fill="#FEFE87"/>
<path transform="translate(360,1144)" d="m0 0h8l-3 2-6 2-10 7-2 7-1-2v-7l6-5z" fill="#004"/>
<path transform="translate(289,690)" d="m0 0 2 2 63 1v1h-65l-1-2z" fill="#000047"/>
<path transform="translate(691,1613)" d="m0 0 4 2 8 5 14 5 5 1v1l-10-1-12-5-8-2-2-5z" fill="#FEFE8C"/>
<path transform="translate(1150,1579)" d="m0 0 3 3 7 11 4 9-1 2-6-8-7-14z" fill="#000042"/>
<path transform="translate(518,837)" d="m0 0h5l9 7 6 5 2 5-4-2-12-10-6-4z" fill="#FEFEB1"/>
<path transform="translate(474,1215)" d="m0 0h1v21l-1 9-2 1v-22z" fill="#000047"/>
<path transform="translate(848,1389)" d="m0 0 2 1-3 3v3h-2l-2 4-2 2-7-1 1-3 11-7z" fill="#FEFE80"/>
<path transform="translate(1298,1330)" d="m0 0h18v16h-6l2-4v-9l-1-1-13-1z" fill="#00002F"/>
<path transform="translate(1114,1283)" d="m0 0h26v1l-21 3-5 3z" fill="#00002C"/>
<path transform="translate(450,813)" d="m0 0h8l19 4 12 3 2 1v2l2 1-5-1-21-6-17-3z" fill="#FEFEE6"/>
<path transform="translate(862,1477)" d="m0 0 2 1-6 4h-2v2l-9 3-10 8v-3l6-6 12-6 2-2z" fill="#000046"/>
<path transform="translate(454,868)" d="m0 0 5 3 2 2v9l-1 2-3-1z" fill="#000069"/>
<path transform="translate(1164,1490)" d="m0 0 2 1-9 12-5 10-2-1 1-5 6-10 5-5z" fill="#FEFE83"/>
<path transform="translate(484,914)" d="m0 0h1v28l-13-1v-1l8-1 3-4v-20z" fill="#000070"/>
<path transform="translate(700,1296)" d="m0 0 1 3-4 14-4 8-4 10-2 2 1-5z" fill="#004"/>
<path transform="translate(531,848)" d="m0 0 4 2 13 12 9 10-1 2-25-25z" fill="#000043"/>
<path transform="translate(558,1527)" d="m0 0 6 5 4-1 2-3 1 3v9h-3l-10-11z" fill="#FEFEFC"/>
<path transform="translate(342,1443)" d="m0 0 2 1-4 5-1 16-1 13h-1v-30z" fill="#00002C"/>
<path transform="translate(607,713)" d="m0 0h14l1 30h-5l2-5v-21l-1-2-11-1z" fill="#00002C"/>
<path transform="translate(1072,1604)" d="m0 0 4 5 2 1 3 7 2 1v2l4 2 2 3h-6l-11-18z" fill="#000040"/>
<path transform="translate(1218,1397)" d="m0 0 1 4-9 2h-13l-4-2 4-1h21z" fill="#FFFF6D"/>
<path transform="translate(1092,1322)" d="m0 0 3 4 1 2-1 19-2 3v-10z" fill="#FEFE8D"/>
<path transform="translate(1e3 1199)" d="m0 0h1v11l-4 9-1-2v-9l3-8z" fill="#000040"/>
<path transform="translate(1056,1162)" d="m0 0 7 1h15l15-1v2l-6 1h-32z" fill="#FEFEFC"/>
<path transform="translate(983,1118)" d="m0 0h24v11h-1l-1-9h-17l-5 5z" fill="#00002C"/>
<path transform="translate(508,832)" d="m0 0 10 5 12 9h-3l-3-2-6-2-5-4v-2l-6-2z" fill="#000046"/>
<path transform="translate(965,1560)" d="m0 0h1l-1 13-5 16-3 3 3-12 2-6z" fill="#000030"/>
<path transform="translate(1e3 1469)" d="m0 0h13l9 1 2 2h-30l2-2z" fill="#FFFF6D"/>
<path transform="translate(759,1357)" d="m0 0 2 4h2l7 18 2 8-3-1-4-14-6-12z" fill="#00003F"/>
<path transform="translate(822,1577)" d="m0 0 2 1 6 12 3 7 1 4-4-4-7-14z" fill="#000042"/>
<path transform="translate(1093,1118)" d="m0 0h6l8 3 9 9-1 3-1-3-4-2-10-6-7-3z" fill="#000045"/>
<path transform="translate(408,588)" d="m0 0 4 4 34 1v1h-39z" fill="#004"/>
<path transform="translate(408,564)" d="m0 0h28v1l-5 1-16 1-5 2-2 3z" fill="#00003F"/>
<path transform="translate(434,440)" d="m0 0h3v14l-3-4-2-6-7-2v-1z" fill="#00002D"/>
<path transform="translate(1242,1473)" d="m0 0h7l11 7 5 5-1 2-7-6-15-7z" fill="#FEFEA9"/>
<path transform="translate(1258,1116)" d="m0 0 5 1 13 8-2 1-9-4-11-4z" fill="#FEFEAC"/>
<path transform="translate(748,1386)" d="m0 0 3 4 4 4 6 5v1h-8l-5-11z" fill="#000043"/>
<path transform="translate(873,1212)" d="m0 0h15l4 1v2h-18z" fill="#FEFE9C"/>
<path transform="translate(287,852)" d="m0 0h1l2 11v16l-2-3-1-7z" fill="#000047"/>
<path transform="translate(727,1225)" d="m0 0h10l4 2v2l-7 1-7-3z" fill="#0300AC"/>
<path transform="translate(1119,1141)" d="m0 0 2 2 1 16-4 6-1-2 1-9z" fill="#000046"/>
<path transform="translate(544,1512)" d="m0 0 7 6 10 13 2 3-4-2-10-11-5-7z" fill="#00003E"/>
<path transform="translate(523,1469)" d="m0 0 2 3 1 12 8 16-4-2-5-9-2-12z" fill="#00003C"/>
<path transform="translate(289,1085)" d="m0 0h1v14l-2 7h-1v-18z" fill="#000047"/>
<path transform="translate(916,1472)" d="m0 0 8 1 11 5 5 4-1 2-6-4-17-7z" fill="#FEFE93"/>
<path transform="translate(767,1190)" d="m0 0 7 1 9 2 5 4-10-2-10-4-1 2z" fill="#FEFE8A"/>
<path transform="translate(1377,1164)" d="m0 0h21l-1 18-2-1v-15l-18-1z" fill="#000030"/>
<path transform="translate(467,953)" d="m0 0h2l3 7-2 9-2 2-1-5z" fill="#00006D"/>
<path transform="translate(1234,1381)" d="m0 0h1l2 12 2 3v3h12v1h-14l-3-7z" fill="#000047"/>
<path transform="translate(811,1118)" d="m0 0h17l-1 2-10 1-4 3h-2z" fill="#000043"/>
<path transform="translate(695,1572)" d="m0 0 2 3 4 8 13 12h-3l-5-4v-2l-4-2-5-6-2-5z" fill="#000042"/>
<path transform="translate(771,1569)" d="m0 0 14 4 1 2-5-1h-7l-6 4z" fill="#000031"/>
<path transform="translate(1175,1532)" d="m0 0 2 4v16l-2 1-1-7v-9z" fill="#000042"/>
<path transform="translate(1266,1494)" d="m0 0 4 4 3 5 1 6-1 7h-5l3-7-1-6-4-7z" fill="#000047"/>
<path transform="translate(792,1497)" d="m0 0 3 1 4 7 1 9h-2l-6-15z" fill="#FEFE86"/>
<path transform="translate(762,1471)" d="m0 0 11 4 4 4-1 2-17-8z" fill="#FEFEAF"/>
<path transform="translate(381,1343)" d="m0 0h2v13l-4 1v-8z" fill="#00002F"/>
<path transform="translate(1115,1206)" d="m0 0 2 1-1 5-4 4h-4l1-4z" fill="#0300AC"/>
<path transform="translate(1088,1472)" d="m0 0 18 1v1l-10 1-6 2-1 5h-1z" fill="#00002C"/>
<path transform="translate(1007,1195)" d="m0 0h2v8l-2 7h-2v-12z" fill="#FEFE76"/>
<path transform="translate(1086,1557)" d="m0 0h1v14h-3l-5-6 2-1 4 1z" fill="#FEFEFB"/>
<path transform="translate(766,1513)" d="m0 0 6 2 2 2 4 2-6 2h-4z" fill="#000039"/>
<path transform="translate(1273,1504)" d="m0 0h2l4 8v2l-7 1z" fill="#00002C"/>
<path transform="translate(1233,1376)" d="m0 0h1l1 17 2 7-5-1z" fill="#000030"/>
<path transform="translate(988,1119)" d="m0 0h11v1l-9 1-3 4-2 7h-2v-7z" fill="#000047"/>
<path transform="translate(1306,1473)" d="m0 0h27v1l-20 1-4 1-3 4z" fill="#00002C"/>
<path transform="translate(783,1136)" d="m0 0 3 4 3 10-3 2-3-1 1-4v-6z" fill="#00002F"/>
<path transform="translate(287,1502)" d="m0 0 2 1 1 4v12l-3-2z" fill="#000047"/>
<path transform="translate(1348,1359)" d="m0 0h2l-2 4-4 6-8 6 2-4 8-10z" fill="#000038"/>
<path transform="translate(371,1126)" d="m0 0 2 2 2 10-3 6-4-1h3z" fill="#000063"/>
<path transform="translate(1112,1597)" d="m0 0h2v27h-1l-1-16-1-3z" fill="#000037"/>
<path transform="translate(1281,1137)" d="m0 0h2l6 10 2 7v5l-2-2-5-13z" fill="#000047"/>
<path transform="translate(1267,1575)" d="m0 0 8 1 5 3-2 6-3-4v-2l-6-2z" fill="#00002F"/>
<path transform="translate(787,1575)" d="m0 0 10 2 2 1-1 6h-2l-5-6z" fill="#00002F"/>
<path transform="translate(1196,1217)" d="m0 0h1l2 16h6v1l-9 1z" fill="#000030"/>
<path transform="translate(713,1193)" d="m0 0 2 2 4 10 8 7-2 1-8-6-2-3z" fill="#000036"/>
<path transform="translate(1177,1480)" d="m0 0h5l-5 4-6 4-7 7v-3l10-10z" fill="#000048"/>
<path transform="translate(713,1320)" d="m0 0 1 3-7 19-1-4 4-13z" fill="#000042"/>
<path transform="translate(742,1313)" d="m0 0h2l7 17-1 3-2-6h-2l-3-10z" fill="#000030"/>
<path transform="translate(711,1286)" d="m0 0 10 1 4 2h-19v-2z" fill="#000047"/>
<path transform="translate(932,1178)" d="m0 0h1l2 10 1 15-2-3-2-11z" fill="#000047"/>
<path transform="translate(1204,1467)" d="m0 0h20v1l-11 1-2 1h-8z" fill="#FEFE80"/>
<path transform="translate(513,1438)" d="m0 0 4 2 5 4 3 4v5l-4-4-4-6-4-3z" fill="#00002F"/>
<path transform="translate(1114,1386)" d="m0 0 2 2 3 12h-5z" fill="#00002C"/>
<path transform="translate(1092,1363)" d="m0 0 1 3-7 14h-2l2-5 4-11z" fill="#FEFE84"/>
<path transform="translate(1295,1179)" d="m0 0h1l1 12-3 7-2 1z" fill="#FEFE9B"/>
<path transform="translate(767,1476)" d="m0 0 12 6 5 4 1 5-5-5-9-6-5-2z" fill="#000047"/>
<path transform="translate(504,1147)" d="m0 0 9 3 2 2v6l-1-3-5-2z" fill="#000047"/>
<path transform="translate(1032,1118)" d="m0 0 1 2 4-1h9v1l-10 3-3 1-1 4z" fill="#000047"/>
<path transform="translate(568,1059)" d="m0 0h2v9h-3l-3-1 2-5z" fill="#FEFEFB"/>
<path transform="translate(384,935)" d="m0 0 5 2 5 4h-11z" fill="#00006D"/>
<path transform="translate(1115,1177)" d="m0 0 5 2 3 3 2 5 2 4-1 3-6-10-2-5-3-1z" fill="#000045"/>
<path transform="translate(1277,1129)" d="m0 0 4 2 8 13-1 3-10-16z" fill="#000031"/>
<path transform="translate(289,794)" d="m0 0h2l-2 6-1 2-1 12h-1v-18z" fill="#000070"/>
<path transform="translate(1022,1526)" d="m0 0 4 4 3 6-6-1z" fill="#FEFEF6"/>
<path transform="translate(1248,1515)" d="m0 0 7 2v3l-6 2-1-1z" fill="#000030"/>
<path transform="translate(1416,1492)" d="m0 0 1 3-1 2h-26v-1l23-1z" fill="#000047"/>
<path transform="translate(1315,1227)" d="m0 0h3v6h14v1h-17z" fill="#000038"/>
<path transform="translate(382,817)" d="m0 0m-3 1 3 1-5 3-6 2h-5l4-3z" fill="#FEFE86"/>
<path transform="translate(1069,1553)" d="m0 0 6 3 5 10-4-2-7-9z" fill="#00003F"/>
<path transform="translate(789,1498)" d="m0 0 3 3 2 6v6l-3 3-2-1 2-5v-6z" fill="#000047"/>
<path transform="translate(855,1474)" d="m0 0 5 1-4 3-10 6-3 2 2-4 7-5h2z" fill="#FEFE93"/>
<path transform="translate(971,1380)" d="m0 0h2l-1 8-4-5-12-1v-1z" fill="#00002D"/>
<path transform="translate(785,1361)" d="m0 0 11 1v1l-8 1-3 4-2 3v-8z" fill="#00002D"/>
<path transform="translate(912,1198)" d="m0 0 2 3 2 9v5l-3-4-1-3z" fill="#FEFE8F"/>
<path transform="translate(538,1175)" d="m0 0h2l1 2v7l-4 4-2-1 3-1z" fill="#00002F"/>
<path transform="translate(786,1151)" d="m0 0 2 1-9 4-7 1-7-1v-1l13-1z" fill="#FEFE93"/>
<path transform="translate(568,880)" d="m0 0 2 1v9l-5-5-2-4 5 1z" fill="#FEFEFF"/>
<path transform="translate(704,1473)" d="m0 0m5 0 1 2-14 6 2-4 4-3z" fill="#FEFEAF"/>
<path transform="translate(384,1320)" d="m0 0 2 2v7l-2 6-2 1z" fill="#000045"/>
<path transform="translate(811,1224)" d="m0 0 2 2 2 5 4 3-8 1-1-3z" fill="#00003D"/>
<path transform="translate(360,1144)" d="m0 0h8l-3 2-10 3-5 3-2-1 6-4z" fill="#000037"/>
<path transform="translate(785,1489)" d="m0 0 5 5 4 8-3-1-4-5-2-4z" fill="#000036"/>
<path transform="translate(354,1432)" d="m0 0 1 4-8 8-3-1 5-5z" fill="#00003E"/>
<path transform="translate(751,1339)" d="m0 0 3 4 5 11-1 3-6-12z" fill="#000047"/>
<path transform="translate(787,1602)" d="m0 0v3l-7 8-5 4-2-1 9-8z" fill="#000045"/>
<path transform="translate(687,1392)" d="m0 0 1 3-2 5h-6l3-5 4-1z" fill="#004"/>
<path transform="translate(720,1233)" d="m0 0 20 4v1h-12l-8-3z" fill="#FEFEB3"/>
<path transform="translate(761,1118)" d="m0 0 8 1 6 4v2l-6-2-8-4z" fill="#FEFEAA"/>
<path transform="translate(484,935)" d="m0 0h1v7l-13-1v-1l8-1z" fill="#00006C"/>
<path transform="translate(1192,1473)" d="m0 0 3 1-4 1v2l-8 3-4-1z" fill="#000038"/>
<path transform="translate(1321,1390)" d="m0 0h1v10h-9v-1h6l1-8z" fill="#00002C"/>
<path transform="translate(701,1513)" d="m0 0h2l-3 9-2 2-1-5 2-4h2z" fill="#00003D"/>
<path transform="translate(1203,1467)" d="m0 0m-3 1h3v3l-10 2 2-4z" fill="#FEFEA1"/>
<path transform="translate(785,1377)" d="m0 0 2 3 6 10-1 2-5-6-3-8z" fill="#000040"/>
<path transform="translate(492,1397)" d="m0 0 1 2h2l2 14-2-2-3-11z" fill="#000041"/>
<path transform="translate(766,1372)" d="m0 0 2 1 4 12v2l-3-1-3-11z" fill="#00003B"/>
<path transform="translate(943,1235)" d="m0 0 10 1-2 3h-5z" fill="#FEFE88"/>
<path transform="translate(753,1116)" d="m0 0 8 2 7 4-3 1-12-6z" fill="#000047"/>
<path transform="translate(1072,1604)" d="m0 0 4 5 2 1 2 5-1 3-7-11z" fill="#000039"/>
<path transform="translate(772,1388)" d="m0 0 2 1 2 5v5h-5l2-1z" fill="#00002F"/>
<path transform="translate(710,1228)" d="m0 0 10 5-4 1-4-1v-2h-2z" fill="#FEFE83"/>
<path transform="translate(358,652)" d="m0 0h8l5 2v1h-9l-4-1z" fill="#FEFE37"/>
</svg>
